<?xml version="1.0"?><svg fill="#000000b2" xmlns="http://www.w3.org/2000/svg"  viewBox="0 0 24 24" width="24px" height="24px">    <path d="M 7 1 C 6.448 1 6 1.448 6 2 L 6 3 L 5 3 C 3.9 3 3 3.9 3 5 L 3 19 C 3 20.1 3.9 21 5 21 L 19 21 C 20.1 21 21 20.1 21 19 L 21 5 C 21 3.9 20.1 3 19 3 L 18 3 L 18 2 C 18 1.448 17.552 1 17 1 C 16.448 1 16 1.448 16 2 L 16 3 L 8 3 L 8 2 C 8 1.448 7.552 1 7 1 z M 5 8 L 19 8 L 19 19 L 5 19 L 5 8 z M 14 13 C 13.448 13 13 13.448 13 14 L 13 16 C 13 16.552 13.448 17 14 17 L 16 17 C 16.552 17 17 16.552 17 16 L 17 14 C 17 13.448 16.552 13 16 13 L 14 13 z"/></svg>