<svg width="24" height="24" viewBox="0 0 24 24" fill="none" xmlns="http://www.w3.org/2000/svg">
<path d="M24 12C24 5.373 18.627 0 12 0C5.373 0 0 5.373 0 12C0 18.627 5.373 24 12 24C18.627 24 24 18.627 24 12ZM11.293 16.707L5.293 10.707C5.098 10.512 5 10.256 5 10C5 9.744 5.098 9.488 5.293 9.293C5.684 8.902 6.316 8.902 6.707 9.293L12 14.586L17.293 9.293C17.684 8.902 18.316 8.902 18.707 9.293C19.098 9.684 19.098 10.316 18.707 10.707L12.707 16.707C12.316 17.098 11.684 17.098 11.293 16.707Z" fill="black"/>
</svg>
