<svg width="585" height="585" viewBox="0 0 585 585" fill="none" xmlns="http://www.w3.org/2000/svg">
<g opacity="0.3">
<path opacity="0.3" d="M543.19 55.4677V481.956H41.8135V55.4677H543.19ZM544.83 53.82H40.1699V483.6H544.83V53.82Z" fill="#C4ECFE"/>
<path opacity="0.3" d="M544.83 358.511H40.1699V360.049H544.83V358.511Z" fill="#C4ECFE"/>
<path opacity="0.3" d="M544.83 296.946H40.1699V298.485H544.83V296.946Z" fill="#C4ECFE"/>
<path opacity="0.3" d="M544.83 358.511H40.1699V360.049H544.83V358.511Z" fill="#C4ECFE"/>
<path opacity="0.3" d="M544.83 420.021H40.1699V421.559H544.83V420.021Z" fill="#C4ECFE"/>
<path opacity="0.3" d="M544.83 235.436H40.1699V236.974H544.83V235.436Z" fill="#C4ECFE"/>
<path opacity="0.3" d="M544.83 173.872H40.1699V175.41H544.83V173.872Z" fill="#C4ECFE"/>
<path opacity="0.3" d="M544.83 112.361H40.1699V113.899H544.83V112.361Z" fill="#C4ECFE"/>
</g>
<path d="M74.1273 255.056C75.3251 255.056 76.2961 254.082 76.2961 252.881C76.2961 251.681 75.3251 250.707 74.1273 250.707C72.9295 250.707 71.9585 251.681 71.9585 252.881C71.9585 254.082 72.9295 255.056 74.1273 255.056Z" fill="#BFD9FF"/>
<path d="M468.557 338.785C469.755 338.785 470.726 337.812 470.726 336.611C470.726 335.41 469.755 334.436 468.557 334.436C467.359 334.436 466.388 335.41 466.388 336.611C466.388 337.812 467.359 338.785 468.557 338.785Z" fill="#BFD9FF"/>
<path d="M474.269 68.7209C475.467 68.7209 476.438 67.7474 476.438 66.5466C476.438 65.3458 475.467 64.3724 474.269 64.3724C473.072 64.3724 472.101 65.3458 472.101 66.5466C472.101 67.7474 473.072 68.7209 474.269 68.7209Z" fill="#BFD9FF"/>
<path d="M504.895 141.738C506.093 141.738 507.064 140.765 507.064 139.564C507.064 138.363 506.093 137.39 504.895 137.39C503.697 137.39 502.726 138.363 502.726 139.564C502.726 140.765 503.697 141.738 504.895 141.738Z" fill="#BFD9FF"/>
<path d="M76.2962 100.377C77.494 100.377 78.465 99.4039 78.465 98.2031C78.465 97.0023 77.494 96.0289 76.2962 96.0289C75.0984 96.0289 74.1274 97.0023 74.1274 98.2031C74.1274 99.4039 75.0984 100.377 76.2962 100.377Z" fill="#BFD9FF"/>
<path d="M145.005 326.27C146.115 326.27 147.015 325.368 147.015 324.255C147.015 323.142 146.115 322.24 145.005 322.24C143.895 322.24 142.995 323.142 142.995 324.255C142.995 325.368 143.895 326.27 145.005 326.27Z" fill="#BFD9FF"/>
<path d="M310.14 483.6C233.285 483.6 235.718 366.73 168.913 351.246C142.202 345.042 127.656 325.263 115.332 303.787C94.7563 267.994 40.2227 282.47 40.2227 323.778V483.6H310.14Z" fill="url(#paint0_linear)"/>
<path d="M416.774 483.6C445.019 483.6 457.925 442.08 491.195 446.11C501.193 447.328 512.353 426.808 516.902 419.067C524.466 406.234 544.512 411.431 544.512 426.225V483.6H416.774Z" fill="url(#paint1_linear)"/>
<path d="M376.504 480.17H297.672L327.095 468.298H347.081L376.504 480.17Z" fill="white"/>
<path d="M376.503 482.82H297.672C296.4 482.82 295.286 481.919 295.074 480.7C294.862 479.481 295.498 478.209 296.665 477.732L326.088 465.86C326.406 465.754 326.724 465.648 327.095 465.648H347.081C347.399 465.648 347.77 465.701 348.088 465.86L377.51 477.732C378.676 478.209 379.366 479.428 379.101 480.7C378.836 481.972 377.776 482.82 376.503 482.82ZM311.296 477.52H362.826L346.551 470.948H327.572L311.296 477.52Z" fill="#F9D5FF"/>
<path d="M343.158 403.109H330.965V467.45H343.158V403.109Z" fill="white"/>
<path d="M343.158 470.101H330.965C329.48 470.101 328.314 468.935 328.314 467.451V403.11C328.314 401.625 329.48 400.46 330.965 400.46H343.158C344.643 400.46 345.809 401.625 345.809 403.11V467.451C345.809 468.934 344.642 470.101 343.158 470.101ZM333.615 464.801H340.507V405.759H333.615V464.801Z" fill="#F9D5FF"/>
<path d="M345.809 404.275H328.314V415.405H345.809V404.275Z" fill="#2B2B2B"/>
<path d="M347.771 334.74H326.353V412.119H347.771V334.74Z" fill="#F9D5FF"/>
<path d="M347.771 355.145H326.353V364.419H347.771V355.145Z" fill="#2B2B2B"/>
<path d="M399.936 322.895H292.145V332.169H399.936V322.895Z" fill="#2B2B2B"/>
<path d="M367.809 349.58H306.367V360.71H367.809V349.58Z" fill="#F9D5FF"/>
<path d="M229.656 322.815L232.201 277.395C232.996 263.615 244.393 252.856 258.177 252.909L296.4 253.068L292.212 328.168C291.947 333.256 287.758 337.178 282.669 337.178H242.909C241.796 337.178 240.736 337.019 239.729 336.754C233.42 335.27 229.285 329.281 229.656 322.815Z" fill="white"/>
<path d="M282.669 339.828H242.909C241.637 339.828 240.365 339.669 239.093 339.351C231.618 337.602 226.581 330.606 227.006 322.709L229.551 277.289C230.452 262.078 243.016 250.259 258.178 250.312L299.21 250.471L294.863 328.38C294.544 334.74 289.19 339.828 282.669 339.828ZM258.071 255.559C245.772 255.559 235.54 265.205 234.851 277.554L232.307 322.974C231.989 328.327 235.381 332.991 240.365 334.157H240.418C241.266 334.369 242.114 334.475 242.909 334.475H282.669C286.327 334.475 289.349 331.613 289.562 327.956L293.59 255.612L258.177 255.453C258.124 255.559 258.124 255.559 258.071 255.559Z" fill="#F9D5FF"/>
<path d="M401.049 324.882H295.711C285.479 324.882 277.739 315.29 278.429 303.47L284.631 198.002C285.32 186.183 294.174 176.59 304.458 176.59H409.797C420.028 176.59 427.768 186.183 427.079 198.002L420.876 303.47C420.187 315.289 411.281 324.882 401.049 324.882Z" fill="white"/>
<path d="M401.049 327.532H295.711C290.516 327.532 285.638 325.412 281.981 321.491C277.633 316.879 275.354 310.255 275.778 303.311L281.981 197.843C282.776 184.646 292.849 173.94 304.458 173.94H409.796C414.992 173.94 419.869 176.06 423.527 179.982C427.874 184.593 430.154 191.218 429.729 198.161L423.527 303.629C422.732 316.826 412.659 327.532 401.049 327.532ZM304.458 179.24C295.605 179.24 287.865 187.72 287.282 198.161L281.08 303.629C280.762 309.141 282.511 314.335 285.851 317.886C288.502 320.695 292 322.232 295.712 322.232H401.049C409.902 322.232 417.643 313.752 418.226 303.311L424.428 197.843C424.746 192.331 422.996 187.137 419.657 183.586C417.006 180.777 413.507 179.24 409.796 179.24H304.458Z" fill="#F9D5FF"/>
<path d="M314.69 331.454H390.447C395.695 331.454 399.936 335.694 399.936 340.94C399.936 346.187 395.695 350.427 390.447 350.427H314.69V331.454Z" fill="white"/>
<path d="M390.446 328.804H314.69V334.104H390.447C394.211 334.104 397.285 337.178 397.285 340.94C397.285 344.703 394.211 347.778 390.447 347.778H314.69V353.078H390.447C397.126 353.078 402.587 347.619 402.587 340.941C402.64 334.263 397.179 328.804 390.446 328.804Z" fill="#F9D5FF"/>
<path d="M346.802 350.428H271.045C265.797 350.428 261.556 346.187 261.556 340.941C261.556 335.694 265.798 331.455 271.045 331.455H346.802V350.428Z" fill="white"/>
<path d="M258.906 340.941C258.906 347.619 264.366 353.078 271.046 353.078H346.802V347.778H271.046C267.282 347.778 264.206 344.704 264.206 340.94C264.206 337.178 267.281 334.104 271.046 334.104H346.802V328.804H271.046C264.313 328.804 258.853 334.263 258.906 340.941Z" fill="#F9D5FF"/>
<path d="M357.101 322.815L359.646 277.395C360.441 263.615 371.839 252.856 385.622 252.909L423.845 253.068L420.611 311.526C419.816 325.942 407.888 337.178 393.468 337.178H370.355C369.242 337.178 368.181 337.019 367.174 336.754C360.918 335.27 356.73 329.281 357.101 322.815Z" fill="white"/>
<path d="M393.468 339.828H370.354C369.082 339.828 367.81 339.669 366.538 339.351C359.062 337.549 354.026 330.553 354.451 322.709L356.995 277.289C357.843 262.131 370.408 250.312 385.517 250.312C385.57 250.312 385.57 250.312 385.623 250.312L426.655 250.471L423.263 311.738C422.361 327.479 409.319 339.828 393.468 339.828ZM385.516 255.559C373.217 255.559 362.985 265.205 362.296 277.554L359.751 322.974C359.433 328.221 362.932 333.044 367.81 334.157H367.863C368.711 334.369 369.559 334.475 370.354 334.475H393.468C406.51 334.475 417.271 324.299 417.96 311.314L421.035 255.665L385.622 255.506C385.569 255.559 385.569 255.559 385.516 255.559Z" fill="#F9D5FF"/>
<path d="M384.98 259.539L385.972 299.155C386.072 303.155 385.368 307.134 383.902 310.857C382.436 314.58 380.238 317.97 377.437 320.828C374.637 323.685 371.292 325.951 367.6 327.492C363.908 329.032 359.944 329.816 355.944 329.796L324.357 329.638L350.114 249.569L384.98 259.539Z" fill="#EDAD94"/>
<path d="M307.631 116.65C304.721 128.556 287.42 149.352 292.076 166.497C294.88 176.816 295.885 190.416 287.42 208.248C281.653 220.365 311.07 218.407 323.979 205.549C336.888 192.691 331.492 150.568 331.492 150.568L307.631 116.65Z" fill="#2B2B2B"/>
<path d="M234.142 211.212L282.976 220.578L265.678 223.437L309.485 192.957C311.681 191.428 314.156 190.347 316.77 189.775C319.383 189.203 322.083 189.151 324.717 189.623C327.35 190.095 329.865 191.08 332.117 192.524C334.369 193.968 336.316 195.841 337.844 198.037C339.373 200.233 340.454 202.709 341.026 205.322C341.598 207.936 341.65 210.637 341.178 213.271C340.706 215.905 339.721 218.42 338.277 220.673C336.834 222.925 334.961 224.872 332.765 226.401L288.958 256.881L287.582 257.834C285.287 259.412 282.642 260.406 279.876 260.729C277.109 261.052 274.306 260.693 271.71 259.685L227.002 242.17L234.142 211.212Z" fill="url(#paint2_linear)"/>
<path d="M296.415 261.906C296.255 238.146 312.604 239.101 306.149 223.171C300.646 209.517 305.039 191.104 317.895 185.971C320.172 185.086 322.595 184.638 325.038 184.648C339.111 184.542 340.063 183.96 345.989 183.907C349.066 183.9 352.123 184.401 355.036 185.389C368.689 190.204 376.94 205.815 372.601 220.737C371.694 223.792 371.284 226.972 371.386 230.157C371.545 235.554 384.824 243.382 384.983 259.682L296.415 261.906Z" fill="url(#paint3_linear)"/>
<path d="M355.142 185.389C354.754 188.513 353.56 191.484 351.677 194.007C349.795 196.531 347.288 198.521 344.403 199.782L330.858 205.762C329.472 206.367 327.958 206.619 326.451 206.495C324.944 206.372 323.491 205.876 322.222 205.053C320.953 204.23 319.909 203.105 319.181 201.778C318.454 200.452 318.067 198.967 318.055 197.454L317.949 185.971C320.226 185.086 322.649 184.638 325.092 184.648C339.165 184.542 340.117 183.96 346.043 183.907C349.138 183.879 352.216 184.379 355.142 185.389Z" fill="white"/>
<path d="M346.888 224.176L332.339 251.64L366.041 258.097L371.966 246.984L346.888 224.176Z" fill="#2B2B2B"/>
<path d="M303.292 240.951C303.194 240.956 303.096 240.939 303.004 240.902C302.913 240.865 302.831 240.809 302.763 240.737C302.616 240.592 302.529 240.397 302.519 240.191C302.509 239.985 302.578 239.783 302.71 239.626C304.763 237.551 306.131 234.898 306.633 232.022C307.134 229.147 306.744 226.187 305.515 223.54C305.463 223.45 305.429 223.35 305.417 223.246C305.404 223.142 305.412 223.037 305.441 222.937C305.469 222.836 305.518 222.743 305.583 222.661C305.649 222.58 305.73 222.513 305.822 222.463C305.914 222.414 306.014 222.383 306.118 222.373C306.222 222.363 306.327 222.375 306.427 222.406C306.526 222.437 306.619 222.488 306.698 222.556C306.778 222.623 306.843 222.706 306.89 222.8C306.943 222.905 311.705 232.324 303.874 240.685C303.722 240.846 303.513 240.942 303.292 240.951Z" fill="#2B2B2B"/>
<path d="M355.937 329.703L288.533 329.481L315.409 300.906L312.979 467.171L273.456 466.589C272.822 463.096 272.346 459.654 271.764 456.164L270.28 445.739C269.275 438.805 268.428 431.875 267.582 424.89C265.941 411.026 264.513 397.109 263.243 383.244C262.661 376.31 262.028 369.38 261.497 362.449L260.702 352.027L259.961 341.602C259.008 327.738 258.196 313.874 257.527 300.009C257.219 293.789 259.13 287.661 262.919 282.718C266.707 277.776 272.128 274.339 278.214 273.022L284.087 271.752C289.536 270.587 294.986 269.582 300.435 268.683C305.885 267.836 311.387 267.095 316.837 266.566C322.34 266.037 327.844 265.666 333.344 265.613H337.47C338.845 265.666 340.221 265.666 341.597 265.72C342.973 265.773 344.348 265.825 345.776 265.934L347.84 266.149L348.898 266.254L385.09 263.987L386.083 298.788C386.197 302.815 385.501 306.823 384.036 310.575C382.571 314.327 380.367 317.746 377.555 320.63C374.743 323.513 371.381 325.802 367.667 327.361C363.953 328.92 359.965 329.716 355.937 329.703Z" fill="url(#paint4_linear)"/>
<path d="M319.667 306.242L353.285 329.796H357.133L361.238 329.471L365.208 328.512L369.713 326.618L373.092 324.494L375.147 323.21L373.613 297.334L319.667 306.242Z" fill="#2B2B2B"/>
<path d="M375.146 323.21L279.536 292.598L312.023 281.909L213.507 406.528L183.668 378.218C189.064 366.312 219.434 325.619 225.729 314.4C228.904 308.791 232.025 303.182 235.307 297.626L240.122 289.265L245.043 280.957C251.603 269.898 258.269 258.926 265.042 248.043C267.911 243.442 272.145 239.851 277.154 237.774C282.162 235.696 287.694 235.235 292.977 236.454L297.157 237.459C306.68 239.682 316.099 242.116 325.515 244.603C334.933 247.196 344.297 249.789 353.556 252.7C362.868 255.559 385.093 263.979 385.093 263.979L375.146 323.21Z" fill="url(#paint5_linear)"/>
<path d="M245.252 366.364L257.527 308.843L265.78 340.435L245.252 366.364Z" fill="#2B2B2B"/>
<path d="M285.303 285.031C285.082 285.022 284.874 284.927 284.722 284.766L278.849 278.363C278.709 278.209 278.635 278.005 278.645 277.797C278.655 277.588 278.748 277.392 278.902 277.252C279.057 277.112 279.26 277.039 279.469 277.049C279.677 277.059 279.873 277.151 280.013 277.305L285.886 283.708C285.958 283.783 286.014 283.872 286.05 283.97C286.087 284.067 286.103 284.171 286.098 284.275C286.093 284.379 286.067 284.481 286.021 284.574C285.976 284.668 285.912 284.751 285.833 284.819C285.765 284.891 285.683 284.947 285.591 284.983C285.5 285.02 285.402 285.036 285.303 285.031Z" fill="#2B2B2B"/>
<path d="M317.418 171.577L333.82 170.572C335.839 170.452 337.814 169.934 339.633 169.05C341.451 168.165 343.078 166.93 344.42 165.417C345.761 163.903 346.791 162.139 347.45 160.227C348.11 158.315 348.386 156.291 348.263 154.272L346.782 129.507C346.589 126.275 345.762 123.113 344.346 120.202C342.93 117.29 340.955 114.686 338.532 112.539C336.11 110.391 333.288 108.742 330.228 107.687C327.168 106.631 323.93 106.188 320.698 106.385C317.467 106.578 314.305 107.406 311.394 108.821C308.483 110.237 305.879 112.213 303.732 114.635C301.585 117.058 299.936 119.881 298.88 122.941C297.824 126.002 297.382 129.24 297.578 132.472L298.953 155.173C299.089 157.463 299.673 159.704 300.675 161.768C301.676 163.831 303.074 165.677 304.788 167.201C306.503 168.724 308.501 169.895 310.668 170.646C312.835 171.397 315.129 171.713 317.418 171.577Z" fill="#FDC068"/>
<path d="M332.074 198.882L352.708 189.834L347.682 143.161L321.493 144.748L321.916 192.268C321.92 193.471 322.223 194.654 322.797 195.71C323.372 196.766 324.201 197.663 325.209 198.319C326.216 198.976 327.371 199.371 328.57 199.469C329.768 199.567 330.972 199.366 332.074 198.882Z" fill="#FDC068"/>
<path d="M300.752 142.421C302.301 142.421 303.556 141.165 303.556 139.616C303.556 138.067 302.301 136.812 300.752 136.812C299.204 136.812 297.948 138.067 297.948 139.616C297.948 141.165 299.204 142.421 300.752 142.421Z" fill="#2B2B2B"/>
<path d="M308.001 147.607C307.892 147.615 307.783 147.597 307.684 147.553L305.304 146.283C305.011 146.094 304.76 145.846 304.569 145.554C304.377 145.263 304.249 144.934 304.193 144.59C304.083 143.883 304.254 143.161 304.669 142.579L307.897 138.187C307.948 138.112 308.014 138.049 308.09 138C308.166 137.951 308.252 137.917 308.341 137.902C308.43 137.886 308.522 137.888 308.61 137.908C308.698 137.928 308.782 137.966 308.856 138.019C308.929 138.071 308.992 138.138 309.04 138.215C309.087 138.292 309.119 138.378 309.133 138.468C309.147 138.557 309.143 138.649 309.122 138.737C309.1 138.825 309.061 138.908 309.007 138.981L305.78 143.373C305.679 143.507 305.607 143.662 305.57 143.826C305.533 143.99 305.531 144.16 305.566 144.325C305.585 144.476 305.638 144.621 305.721 144.749C305.803 144.878 305.913 144.986 306.042 145.067L308.317 146.282C308.479 146.372 308.602 146.52 308.66 146.696C308.719 146.873 308.71 147.064 308.634 147.234C308.566 147.342 308.473 147.432 308.362 147.497C308.252 147.561 308.129 147.599 308.001 147.607Z" fill="#2B2B2B"/>
<path d="M308.266 157.449H307.843C307.136 157.344 306.458 157.098 305.849 156.725C305.24 156.352 304.712 155.86 304.297 155.279C304.249 155.202 304.216 155.117 304.2 155.028C304.184 154.939 304.186 154.847 304.206 154.759C304.226 154.67 304.263 154.587 304.315 154.512C304.367 154.438 304.433 154.375 304.509 154.326C304.586 154.278 304.671 154.245 304.76 154.229C304.849 154.213 304.941 154.215 305.029 154.235C305.118 154.255 305.201 154.292 305.276 154.344C305.35 154.396 305.413 154.462 305.462 154.538C306.073 155.374 306.982 155.942 308.001 156.126C309.112 156.232 310.276 155.649 311.493 154.433C311.62 154.31 311.79 154.242 311.967 154.243C312.143 154.245 312.312 154.316 312.437 154.44C312.562 154.565 312.633 154.734 312.634 154.911C312.636 155.088 312.568 155.258 312.445 155.385C311.07 156.761 309.641 157.449 308.266 157.449Z" fill="#2B2B2B"/>
<path d="M316.731 141.574C318.28 141.574 319.535 140.318 319.535 138.769C319.535 137.22 318.28 135.964 316.731 135.964C315.182 135.964 313.927 137.22 313.927 138.769C313.927 140.318 315.182 141.574 316.731 141.574Z" fill="#2B2B2B"/>
<path d="M363.554 217.88L411.858 212.852L400.642 250.212L357.1 221.531C354.852 220.067 352.915 218.174 351.401 215.96C349.887 213.746 348.825 211.254 348.277 208.628C347.728 206.002 347.704 203.294 348.205 200.659C348.707 198.023 349.723 195.513 351.197 193.272C352.671 191.031 354.574 189.103 356.795 187.6C359.016 186.096 361.512 185.046 364.14 184.51C366.768 183.974 369.476 183.963 372.109 184.477C374.741 184.991 377.246 186.02 379.479 187.505L423.023 216.186L424.768 217.351C428.474 219.787 431.254 223.397 432.664 227.603C434.074 231.808 434.031 236.365 432.543 240.544C431.055 244.722 428.207 248.279 424.457 250.646C420.706 253.013 416.27 254.052 411.858 253.596L367.681 248.781L363.554 217.88Z" fill="url(#paint6_linear)"/>
<path d="M371.966 226.188C371.829 226.193 371.693 226.161 371.572 226.096C371.451 226.031 371.35 225.935 371.279 225.817L363.766 214.229C363.705 214.142 363.662 214.044 363.64 213.941C363.618 213.838 363.617 213.731 363.637 213.627C363.657 213.523 363.698 213.425 363.757 213.337C363.816 213.249 363.892 213.175 363.98 213.117C364.158 213.006 364.372 212.966 364.578 213.006C364.784 213.046 364.967 213.162 365.091 213.331L372.601 224.916C372.662 225.003 372.704 225.101 372.726 225.204C372.749 225.307 372.75 225.414 372.73 225.517C372.71 225.621 372.669 225.72 372.61 225.807C372.551 225.895 372.475 225.97 372.387 226.027C372.273 226.133 372.122 226.191 371.966 226.188Z" fill="#2B2B2B"/>
<path d="M384.876 233.281C384.879 236.556 384.044 239.778 382.451 242.64C380.858 245.502 378.56 247.909 375.775 249.632L367.68 248.732C367.68 248.732 361.279 240.53 361.279 234.18C361.279 226.348 363.554 217.88 363.554 217.88L375.299 216.665C378.21 218.354 380.626 220.778 382.306 223.694C383.987 226.609 384.873 229.915 384.876 233.281Z" fill="white"/>
<path d="M262.447 482.04H305.567C307.401 482.039 309.16 481.317 310.467 480.03C311.773 478.743 312.522 476.995 312.551 475.161L312.709 465.953L272.764 466.324L261.548 475.055C257.474 476.063 258.215 482.04 262.447 482.04Z" fill="#2B2B2B"/>
<path d="M154.357 372.502L197.106 412.878C198.404 414.169 200.158 414.899 201.989 414.909C203.821 414.919 205.582 414.208 206.894 412.931L213.508 406.528L183.668 378.218L158.642 366.897C155.045 364.776 151.394 369.542 154.357 372.502Z" fill="#2B2B2B"/>
<path d="M314.561 107.072C313.451 114.321 302.71 127.551 297.578 128.98C297.631 128.98 298.53 110.512 314.561 107.072Z" fill="#2B2B2B"/>
<path d="M261.76 366.364C261.76 362.554 258.901 337.525 257.209 315.458C256.674 308.281 258.841 301.164 263.286 295.504C267.731 289.844 274.131 286.052 281.23 284.872C285.346 284.199 289.559 284.43 293.577 285.549C297.596 286.668 301.322 288.648 304.498 291.352C307.675 294.055 310.225 297.418 311.972 301.206C313.718 304.994 314.62 309.117 314.614 313.289L314.561 352.923L261.76 366.364Z" fill="url(#paint7_linear)"/>
<path d="M301.599 289.688L329.482 314.611L311.757 315.035L301.599 289.688Z" fill="url(#paint8_linear)"/>
<path d="M314.72 329.057C314.511 329.052 314.312 328.967 314.165 328.819C314.017 328.672 313.932 328.473 313.927 328.264V318.157C313.927 317.947 314.01 317.745 314.159 317.596C314.308 317.447 314.51 317.364 314.72 317.364C314.931 317.364 315.132 317.447 315.281 317.596C315.43 317.745 315.514 317.947 315.514 318.157V328.264C315.509 328.473 315.423 328.672 315.276 328.819C315.128 328.967 314.929 329.052 314.72 329.057Z" fill="#2B2B2B"/>
<path d="M309.164 109.189C300.54 116.124 316.677 128.348 327.047 135.964C339.903 145.437 324.032 184.489 344.136 204.492C364.241 224.494 373.657 197.084 394.398 197.666C399.372 197.771 384.293 191.951 378.79 166.71C374.77 148.296 355.935 146.55 354.083 138.614C353.501 136.022 351.544 121.47 342.02 112.209C333.132 103.58 320.752 99.8752 309.164 109.189Z" fill="#2B2B2B"/>
<path d="M226.999 242.221L213.613 236.983C210.19 235.644 207.39 233.074 205.763 229.777C204.136 226.48 203.8 222.694 204.82 219.162C205.841 215.629 208.144 212.606 211.279 210.685C214.413 208.764 218.152 208.084 221.762 208.778L234.196 211.159L226.999 242.221Z" fill="#FDC068"/>
<path d="M364.876 248.677L357.311 247.883C349.269 247.037 343.132 239.948 343.873 231.85C344.179 228.442 345.661 225.248 348.065 222.815C350.469 220.381 353.645 218.861 357.047 218.514L363.552 217.827C366.242 217.562 368.935 218.297 371.118 219.891L372.81 221.106C375.452 223.057 377.359 225.842 378.223 229.01C379.087 232.179 378.858 235.547 377.572 238.569L376.038 242.114C375.134 244.266 373.558 246.067 371.547 247.25C369.535 248.433 367.196 248.933 364.876 248.677Z" fill="#FDC068"/>
<path d="M264.828 224.971C264.704 224.974 264.582 224.947 264.471 224.891C264.36 224.836 264.265 224.754 264.193 224.653C264.074 224.483 264.024 224.273 264.053 224.066C264.083 223.86 264.19 223.672 264.352 223.542L271.759 218.251C271.928 218.125 272.14 218.071 272.348 218.101C272.556 218.131 272.744 218.242 272.871 218.41C272.997 218.579 273.051 218.791 273.021 218.999C272.991 219.207 272.88 219.395 272.711 219.522L265.304 224.812C265.165 224.912 264.999 224.967 264.828 224.971Z" fill="#2B2B2B"/>
<path d="M376.834 217.298C376.641 217.298 376.454 217.228 376.309 217.102C376.163 216.976 376.067 216.801 376.04 216.61C376.025 216.508 376.032 216.405 376.059 216.306C376.086 216.207 376.134 216.115 376.199 216.036C376.263 215.956 376.344 215.891 376.435 215.844C376.526 215.797 376.626 215.769 376.728 215.763L402.389 213.064C402.49 213.049 402.594 213.056 402.692 213.083C402.791 213.111 402.883 213.158 402.963 213.223C403.042 213.288 403.107 213.368 403.154 213.459C403.201 213.55 403.229 213.65 403.235 213.752C403.255 213.956 403.193 214.158 403.065 214.317C402.936 214.475 402.75 214.576 402.547 214.599L376.887 217.298H376.834Z" fill="#2B2B2B"/>
<path d="M234.142 211.212L226.999 242.221L235.623 245.608L242.607 212.852L234.142 211.212Z" fill="white"/>
<path d="M256.628 314.188C256.419 314.183 256.22 314.098 256.072 313.95C255.924 313.802 255.839 313.603 255.834 313.395C255.781 299.054 266.68 286.514 281.177 284.131H281.283C284.935 283.597 288.657 284.406 291.758 286.407L321.598 305.566C321.691 305.621 321.771 305.693 321.835 305.78C321.899 305.866 321.946 305.964 321.971 306.068C321.997 306.172 322.002 306.28 321.985 306.386C321.969 306.492 321.931 306.594 321.875 306.685C321.819 306.777 321.745 306.856 321.658 306.918C321.57 306.981 321.472 307.025 321.367 307.049C321.262 307.073 321.154 307.076 321.048 307.057C320.943 307.039 320.842 307 320.751 306.942L290.912 287.782C288.104 285.981 284.743 285.249 281.441 285.719H281.335C267.632 287.995 257.368 299.848 257.421 313.395C257.416 313.603 257.331 313.802 257.183 313.95C257.035 314.098 256.836 314.183 256.628 314.188Z" fill="#2B2B2B"/>
<path d="M320.381 173.112C320.196 173.115 320.015 173.053 319.87 172.938C319.726 172.822 319.626 172.659 319.588 172.477C319.555 172.274 319.603 172.066 319.721 171.898C319.84 171.729 320.02 171.614 320.223 171.577L328 170.255C328.102 170.235 328.206 170.237 328.307 170.258C328.408 170.279 328.504 170.321 328.589 170.38C328.674 170.438 328.747 170.514 328.802 170.601C328.858 170.688 328.895 170.785 328.913 170.887C328.931 170.989 328.928 171.094 328.904 171.194C328.881 171.295 328.838 171.39 328.778 171.474C328.718 171.558 328.641 171.629 328.553 171.683C328.465 171.737 328.367 171.773 328.265 171.789L320.487 173.112H320.381Z" fill="#2B2B2B"/>
<path d="M357.558 322.79L360.086 277.672C360.876 263.984 372.2 253.297 385.894 253.35L423.868 253.508L420.656 311.576C419.866 325.896 408.015 337.057 393.689 337.057H370.726C369.62 337.057 368.566 336.899 367.566 336.636C361.35 335.162 357.19 329.213 357.558 322.79Z" fill="white"/>
<path d="M393.689 339.69H370.725C369.462 339.69 368.197 339.532 366.934 339.216C359.506 337.426 354.503 330.476 354.925 322.685L357.453 277.566C358.295 262.51 370.778 250.77 385.788 250.77C385.841 250.77 385.841 250.77 385.894 250.77L426.66 250.928L423.289 311.787C422.393 327.423 409.437 339.69 393.689 339.69ZM385.788 255.982C373.57 255.982 363.404 265.564 362.72 277.83L360.192 322.948C359.876 328.16 363.352 332.951 368.197 334.056H368.25C369.092 334.267 369.936 334.372 370.725 334.372H393.689C406.646 334.372 417.338 324.264 418.022 311.366L421.077 256.087L385.894 255.929C385.841 255.982 385.841 255.982 385.788 255.982Z" fill="#F9D5FF"/>
<path d="M170.407 262.264H159.825V482.82H170.407V262.264Z" fill="#F9D5FF"/>
<path d="M114.322 262.264H103.74V482.82H114.322V262.264Z" fill="#F9D5FF"/>
<path d="M114.322 260.198H103.74V275.4H114.322V260.198Z" fill="#2B2B2B"/>
<path d="M170.407 260.198H159.825V275.4H170.407V260.198Z" fill="#2B2B2B"/>
<path d="M501.15 255.06H103.74V262.264H501.15V255.06Z" fill="#2B2B2B"/>
<path d="M500.833 262.264H490.251V482.82H500.833V262.264Z" fill="#F9D5FF"/>
<path d="M444.747 262.264H434.165V482.82H444.747V262.264Z" fill="#F9D5FF"/>
<path d="M444.747 260.198H434.165V275.4H444.747V260.198Z" fill="#2B2B2B"/>
<path d="M500.833 260.198H490.251V275.4H500.833V260.198Z" fill="#2B2B2B"/>
<path d="M118.479 444.99L118.066 445.445C110.751 453.295 102.428 460.139 93.3155 465.799L92.8198 466.13L93.109 466.667C97.1587 473.535 101.236 480.431 105.34 487.355L105.67 487.892L106.207 487.561C117.529 480.605 127.845 472.127 136.867 462.365L137.28 461.91L118.479 444.99Z" fill="#BE6361"/>
<path d="M138.654 483.21H79.7983V397.837H138.654V483.21ZM81.3893 481.629H137.063V399.418H81.3893V481.629Z" fill="#2B2B2B"/>
<path d="M137.859 474.831H80.5938V482.367H137.859V474.831Z" fill="#2B2B2B"/>
<path d="M138.654 483.157H79.7983V474.044H138.654V483.157ZM81.3893 481.577H137.063V475.622H81.3893V481.577Z" fill="#2B2B2B"/>
<path d="M137.806 449.061C137.699 449.066 137.592 449.05 137.492 449.013C137.392 448.976 137.3 448.92 137.222 448.847L86.9569 398.891C86.8815 398.82 86.8214 398.734 86.7804 398.639C86.7394 398.544 86.7183 398.441 86.7183 398.338C86.7183 398.234 86.7394 398.132 86.7804 398.036C86.8214 397.941 86.8815 397.855 86.9569 397.784C87.0286 397.709 87.115 397.649 87.2107 397.609C87.3064 397.568 87.4094 397.547 87.5135 397.547C87.6175 397.547 87.7206 397.568 87.8162 397.609C87.9119 397.649 87.9983 397.709 88.07 397.784L138.336 447.744C138.411 447.815 138.471 447.901 138.512 447.996C138.553 448.091 138.574 448.194 138.574 448.297C138.574 448.4 138.553 448.503 138.512 448.598C138.471 448.693 138.411 448.779 138.336 448.85C138.271 448.925 138.189 448.984 138.097 449.02C138.004 449.057 137.904 449.071 137.806 449.061Z" fill="#2B2B2B"/>
<path d="M137.806 463.237C137.699 463.242 137.592 463.226 137.492 463.189C137.392 463.152 137.3 463.096 137.223 463.023L79.7986 406.005C79.7232 405.934 79.6632 405.848 79.6222 405.753C79.5812 405.658 79.5601 405.555 79.5601 405.452C79.5601 405.348 79.5812 405.246 79.6222 405.151C79.6632 405.056 79.7232 404.97 79.7986 404.899C79.8704 404.824 79.9567 404.764 80.0524 404.723C80.1481 404.683 80.2511 404.662 80.3552 404.662C80.4593 404.662 80.5623 404.683 80.658 404.723C80.7537 404.764 80.84 404.824 80.9118 404.899L138.336 461.92C138.411 461.991 138.471 462.077 138.512 462.172C138.553 462.267 138.574 462.37 138.574 462.473C138.574 462.577 138.553 462.679 138.512 462.774C138.471 462.869 138.411 462.955 138.336 463.026C138.271 463.101 138.189 463.16 138.097 463.197C138.005 463.233 137.905 463.247 137.806 463.237Z" fill="#2B2B2B"/>
<path d="M137.806 477.413C137.699 477.418 137.592 477.402 137.492 477.365C137.392 477.328 137.3 477.272 137.222 477.199L79.9046 420.287C79.8292 420.215 79.7692 420.129 79.7282 420.034C79.6872 419.939 79.666 419.837 79.666 419.733C79.666 419.63 79.6872 419.528 79.7282 419.432C79.7692 419.337 79.8292 419.252 79.9046 419.18C79.9764 419.105 80.0628 419.046 80.1586 419.005C80.2543 418.964 80.3574 418.943 80.4615 418.943C80.5657 418.943 80.6687 418.964 80.7645 419.005C80.8602 419.046 80.9466 419.105 81.0185 419.18L138.336 476.096C138.411 476.167 138.471 476.253 138.512 476.348C138.553 476.443 138.574 476.546 138.574 476.649C138.574 476.753 138.553 476.855 138.512 476.95C138.471 477.045 138.411 477.131 138.336 477.202C138.271 477.277 138.189 477.336 138.097 477.373C138.004 477.409 137.905 477.423 137.806 477.413Z" fill="#2B2B2B"/>
<path d="M125.876 479.785C125.769 479.79 125.662 479.773 125.562 479.737C125.462 479.7 125.37 479.644 125.293 479.571L80.0106 434.569C79.9352 434.497 79.8751 434.411 79.8341 434.316C79.7931 434.221 79.772 434.119 79.772 434.015C79.772 433.912 79.7931 433.809 79.8341 433.714C79.8751 433.619 79.9352 433.533 80.0106 433.462C80.0824 433.387 80.1688 433.327 80.2646 433.286C80.3603 433.246 80.4634 433.224 80.5675 433.224C80.6717 433.224 80.7747 433.246 80.8705 433.286C80.9662 433.327 81.0526 433.387 81.1245 433.462L126.409 478.47C126.484 478.541 126.544 478.627 126.585 478.722C126.626 478.817 126.647 478.919 126.647 479.023C126.647 479.126 126.626 479.229 126.585 479.324C126.544 479.419 126.484 479.505 126.409 479.576C126.343 479.651 126.261 479.71 126.168 479.746C126.075 479.782 125.975 479.796 125.876 479.785Z" fill="#2B2B2B"/>
<path d="M112.832 480.997C112.725 481.002 112.619 480.986 112.518 480.949C112.418 480.912 112.326 480.856 112.249 480.784L80.1165 448.852C80.0411 448.78 79.9811 448.694 79.9401 448.599C79.8991 448.504 79.8779 448.402 79.8779 448.298C79.8779 448.195 79.8991 448.093 79.9401 447.997C79.9811 447.902 80.0411 447.817 80.1165 447.745C80.1883 447.67 80.2747 447.61 80.3704 447.57C80.4662 447.529 80.5692 447.508 80.6734 447.508C80.7776 447.508 80.8807 447.529 80.9764 447.57C81.0722 447.61 81.1586 447.67 81.2304 447.745L113.362 479.68C113.437 479.751 113.497 479.837 113.538 479.932C113.579 480.028 113.6 480.13 113.6 480.234C113.6 480.337 113.579 480.44 113.538 480.535C113.497 480.63 113.437 480.716 113.362 480.787C113.297 480.862 113.215 480.92 113.123 480.957C113.03 480.994 112.931 481.007 112.832 480.997Z" fill="#2B2B2B"/>
<path d="M96.7657 479.258C96.6591 479.263 96.5525 479.247 96.4524 479.21C96.3522 479.173 96.2605 479.117 96.1826 479.044L80.0105 462.974C79.9351 462.902 79.8751 462.816 79.8341 462.721C79.7931 462.626 79.772 462.524 79.772 462.42C79.772 462.317 79.7931 462.215 79.8341 462.12C79.8751 462.024 79.9351 461.939 80.0105 461.867C80.0824 461.792 80.1688 461.733 80.2645 461.692C80.3603 461.651 80.4633 461.63 80.5675 461.63C80.6716 461.63 80.7747 461.651 80.8704 461.692C80.9662 461.733 81.0526 461.792 81.1244 461.867L97.2958 477.941C97.3714 478.012 97.4315 478.098 97.4727 478.193C97.5138 478.288 97.535 478.39 97.535 478.494C97.535 478.597 97.5138 478.7 97.4727 478.795C97.4315 478.89 97.3714 478.976 97.2958 479.047C97.2312 479.122 97.1492 479.181 97.0569 479.217C96.9645 479.254 96.8646 479.268 96.7657 479.258Z" fill="#2B2B2B"/>
<path d="M137.912 434.779C137.805 434.784 137.698 434.768 137.598 434.731C137.498 434.695 137.406 434.638 137.328 434.566L101.432 398.891C101.357 398.82 101.297 398.734 101.256 398.639C101.215 398.544 101.193 398.441 101.193 398.338C101.193 398.234 101.215 398.132 101.256 398.036C101.297 397.941 101.357 397.855 101.432 397.784C101.504 397.709 101.59 397.649 101.686 397.609C101.781 397.568 101.884 397.547 101.989 397.547C102.093 397.547 102.196 397.568 102.291 397.609C102.387 397.649 102.473 397.709 102.545 397.784L138.443 433.462C138.518 433.533 138.579 433.619 138.62 433.714C138.661 433.809 138.682 433.912 138.682 434.015C138.682 434.119 138.661 434.221 138.62 434.316C138.579 434.411 138.518 434.497 138.443 434.569C138.378 434.644 138.296 434.703 138.204 434.739C138.111 434.776 138.011 434.79 137.912 434.779Z" fill="#2B2B2B"/>
<path d="M138.018 420.498C137.911 420.503 137.804 420.487 137.704 420.45C137.604 420.413 137.512 420.357 137.435 420.284L115.907 398.891C115.832 398.82 115.772 398.734 115.731 398.639C115.69 398.543 115.668 398.441 115.668 398.337C115.668 398.234 115.69 398.131 115.731 398.036C115.772 397.941 115.832 397.855 115.907 397.784C115.979 397.709 116.065 397.649 116.161 397.609C116.257 397.568 116.36 397.547 116.464 397.547C116.568 397.547 116.671 397.568 116.767 397.609C116.863 397.649 116.949 397.709 117.021 397.784L138.548 419.18C138.623 419.251 138.683 419.337 138.725 419.432C138.766 419.527 138.787 419.63 138.787 419.733C138.787 419.837 138.766 419.939 138.725 420.034C138.683 420.13 138.623 420.215 138.548 420.287C138.483 420.362 138.401 420.421 138.309 420.457C138.217 420.494 138.117 420.508 138.018 420.498Z" fill="#2B2B2B"/>
<path d="M138.071 406.216C137.964 406.221 137.857 406.205 137.757 406.168C137.657 406.131 137.565 406.075 137.488 406.002L130.382 398.891C130.307 398.82 130.247 398.734 130.206 398.639C130.165 398.543 130.144 398.441 130.144 398.337C130.144 398.234 130.165 398.132 130.206 398.036C130.247 397.941 130.307 397.855 130.382 397.784C130.454 397.709 130.54 397.649 130.636 397.609C130.732 397.568 130.835 397.547 130.939 397.547C131.043 397.547 131.146 397.568 131.242 397.609C131.338 397.649 131.424 397.709 131.496 397.784L138.601 404.899C138.676 404.97 138.736 405.056 138.778 405.151C138.819 405.246 138.84 405.348 138.84 405.452C138.84 405.555 138.819 405.658 138.778 405.753C138.736 405.848 138.676 405.934 138.601 406.005C138.536 406.08 138.454 406.139 138.362 406.175C138.269 406.212 138.17 406.226 138.071 406.216Z" fill="#2B2B2B"/>
<path d="M80.6996 449.061C80.5929 449.066 80.4864 449.05 80.3862 449.013C80.2861 448.976 80.1943 448.92 80.1165 448.847C80.0411 448.776 79.9811 448.69 79.9401 448.595C79.8991 448.5 79.8779 448.398 79.8779 448.294C79.8779 448.191 79.8991 448.088 79.9401 447.993C79.9811 447.898 80.0411 447.812 80.1165 447.741L130.382 397.784C130.454 397.709 130.54 397.649 130.636 397.609C130.732 397.568 130.835 397.547 130.939 397.547C131.043 397.547 131.146 397.568 131.242 397.609C131.338 397.649 131.424 397.709 131.496 397.784C131.571 397.855 131.631 397.941 131.672 398.036C131.713 398.131 131.735 398.234 131.735 398.337C131.735 398.441 131.713 398.543 131.672 398.639C131.631 398.734 131.571 398.82 131.496 398.891L81.2834 448.852C81.2051 448.923 81.113 448.979 81.0128 449.015C80.9125 449.051 80.806 449.067 80.6996 449.061Z" fill="#2B2B2B"/>
<path d="M80.6996 463.237C80.5929 463.242 80.4864 463.226 80.3862 463.189C80.2861 463.152 80.1943 463.096 80.1165 463.023C80.0411 462.952 79.9811 462.866 79.9401 462.771C79.8991 462.676 79.8779 462.574 79.8779 462.47C79.8779 462.367 79.8991 462.264 79.9401 462.169C79.9811 462.074 80.0411 461.988 80.1165 461.917L137.487 404.899C137.559 404.821 137.646 404.758 137.743 404.714C137.84 404.67 137.945 404.646 138.052 404.644C138.158 404.641 138.264 404.66 138.363 404.7C138.462 404.739 138.551 404.798 138.627 404.873C138.702 404.948 138.761 405.037 138.801 405.135C138.841 405.233 138.86 405.339 138.857 405.444C138.855 405.55 138.831 405.655 138.787 405.751C138.743 405.847 138.679 405.934 138.601 406.005L81.2834 463.026C81.2052 463.098 81.1132 463.154 81.0129 463.19C80.9127 463.227 80.8061 463.242 80.6996 463.237Z" fill="#2B2B2B"/>
<path d="M80.6996 477.413C80.5929 477.418 80.4864 477.402 80.3862 477.365C80.2861 477.328 80.1943 477.272 80.1165 477.199C80.0411 477.128 79.9811 477.042 79.9401 476.947C79.8991 476.852 79.8779 476.75 79.8779 476.646C79.8779 476.543 79.8991 476.44 79.9401 476.345C79.9811 476.25 80.0411 476.164 80.1165 476.093L137.434 419.18C137.584 419.044 137.781 418.971 137.984 418.976C138.186 418.98 138.379 419.063 138.523 419.205C138.666 419.348 138.749 419.539 138.753 419.741C138.758 419.942 138.684 420.138 138.548 420.287L81.2304 477.202C81.1656 477.277 81.0835 477.336 80.9911 477.373C80.8986 477.409 80.7986 477.423 80.6996 477.413Z" fill="#2B2B2B"/>
<path d="M91.308 481.104C91.2014 481.109 91.0948 481.093 90.9947 481.056C90.8945 481.019 90.8028 480.963 90.7249 480.89C90.6495 480.819 90.5895 480.733 90.5485 480.638C90.5075 480.543 90.4863 480.44 90.4863 480.337C90.4863 480.233 90.5075 480.131 90.5485 480.036C90.5895 479.941 90.6495 479.855 90.7249 479.783L137.329 433.462C137.477 433.318 137.676 433.238 137.883 433.239C138.091 433.241 138.289 433.323 138.436 433.469C138.582 433.614 138.665 433.811 138.666 434.017C138.668 434.223 138.588 434.421 138.443 434.569L91.8345 480.89C91.7706 480.965 91.6893 481.024 91.5976 481.061C91.506 481.098 91.4066 481.113 91.308 481.104Z" fill="#2B2B2B"/>
<path d="M105.939 480.734C105.832 480.739 105.726 480.723 105.625 480.686C105.525 480.649 105.433 480.593 105.355 480.52C105.28 480.449 105.22 480.363 105.179 480.268C105.138 480.173 105.117 480.07 105.117 479.967C105.117 479.864 105.138 479.761 105.179 479.666C105.22 479.571 105.28 479.485 105.355 479.414L137.225 447.744C137.376 447.611 137.571 447.541 137.772 447.547C137.973 447.553 138.164 447.636 138.306 447.777C138.448 447.919 138.53 448.109 138.536 448.309C138.541 448.508 138.469 448.703 138.336 448.852L106.469 480.522C106.405 480.598 106.323 480.656 106.23 480.693C106.138 480.73 106.038 480.744 105.939 480.734Z" fill="#2B2B2B"/>
<path d="M119.725 481.208C119.619 481.213 119.512 481.197 119.412 481.16C119.311 481.123 119.219 481.067 119.141 480.994C119.066 480.923 119.006 480.837 118.965 480.742C118.924 480.647 118.903 480.544 118.903 480.441C118.903 480.337 118.924 480.235 118.965 480.14C119.006 480.045 119.066 479.959 119.141 479.887L137.225 461.92C137.375 461.784 137.572 461.711 137.775 461.716C137.977 461.72 138.17 461.802 138.314 461.945C138.457 462.087 138.54 462.279 138.544 462.481C138.549 462.682 138.475 462.877 138.339 463.026L120.308 480.997C120.23 481.069 120.138 481.125 120.038 481.161C119.938 481.197 119.832 481.213 119.725 481.208Z" fill="#2B2B2B"/>
<path d="M80.5937 434.779C80.487 434.784 80.3805 434.768 80.2803 434.731C80.1802 434.695 80.0884 434.638 80.0106 434.566C79.9352 434.494 79.8751 434.409 79.8341 434.313C79.7931 434.218 79.772 434.116 79.772 434.012C79.772 433.909 79.7931 433.806 79.8341 433.711C79.8751 433.616 79.9352 433.53 80.0106 433.459L115.907 397.784C115.979 397.709 116.065 397.649 116.161 397.609C116.257 397.568 116.36 397.547 116.464 397.547C116.568 397.547 116.671 397.568 116.767 397.609C116.863 397.649 116.949 397.709 117.021 397.784C117.096 397.855 117.156 397.941 117.197 398.036C117.238 398.131 117.26 398.234 117.26 398.337C117.26 398.441 117.238 398.543 117.197 398.639C117.156 398.734 117.096 398.82 117.021 398.891L81.1245 434.569C81.0597 434.644 80.9776 434.702 80.8852 434.739C80.7927 434.776 80.6927 434.79 80.5937 434.779Z" fill="#2B2B2B"/>
<path d="M80.5936 420.393C80.487 420.398 80.3804 420.381 80.2802 420.345C80.18 420.308 80.0883 420.252 80.0105 420.179C79.9351 420.108 79.8751 420.022 79.8341 419.927C79.7931 419.832 79.772 419.729 79.772 419.626C79.772 419.522 79.7931 419.42 79.8341 419.325C79.8751 419.23 79.9351 419.144 80.0105 419.073L101.429 397.785C101.501 397.71 101.587 397.65 101.683 397.609C101.779 397.569 101.882 397.548 101.986 397.548C102.09 397.548 102.193 397.569 102.288 397.609C102.384 397.65 102.47 397.71 102.542 397.785C102.618 397.856 102.678 397.942 102.719 398.037C102.76 398.132 102.781 398.235 102.781 398.338C102.781 398.442 102.76 398.544 102.719 398.639C102.678 398.734 102.618 398.82 102.542 398.892L81.1237 420.18C81.0593 420.255 80.9774 420.314 80.8851 420.351C80.7927 420.388 80.6927 420.402 80.5936 420.393Z" fill="#2B2B2B"/>
<path d="M80.3817 406.216C80.2751 406.221 80.1685 406.205 80.0684 406.168C79.9682 406.131 79.8765 406.075 79.7986 406.002C79.7232 405.931 79.6632 405.845 79.6222 405.75C79.5812 405.655 79.5601 405.553 79.5601 405.449C79.5601 405.346 79.5812 405.243 79.6222 405.148C79.6632 405.053 79.7232 404.967 79.7986 404.896L87.4871 397.257C87.5589 397.182 87.6452 397.123 87.7409 397.082C87.8366 397.041 87.9396 397.02 88.0437 397.02C88.1478 397.02 88.2508 397.041 88.3465 397.082C88.4421 397.123 88.5285 397.182 88.6003 397.257C88.6757 397.328 88.7357 397.414 88.7767 397.509C88.8177 397.604 88.8388 397.707 88.8388 397.81C88.8388 397.914 88.8177 398.016 88.7767 398.111C88.7357 398.206 88.6757 398.292 88.6003 398.363L80.9118 406.005C80.8472 406.08 80.7652 406.139 80.6729 406.175C80.5805 406.212 80.4806 406.226 80.3817 406.216Z" fill="#2B2B2B"/>
<path d="M110.472 301.08L109.943 301.659C100.574 311.65 89.915 320.361 78.2447 327.564L77.6099 327.985L77.9802 328.67C83.1667 337.41 88.388 346.186 93.6441 354.999L94.0674 355.683L94.7551 355.262C109.255 346.408 122.467 335.618 134.021 323.194L134.55 322.615L110.472 301.08Z" fill="#BE6361"/>
<path d="M460.522 239.565H400.177V255.833H460.522V239.565Z" fill="white"/>
<path d="M461.306 256.62H399.391V238.778H461.306V256.62ZM400.962 255.045H459.739V240.352H400.962V255.045Z" fill="#BE6361"/>
<path d="M497.179 238.778H459.738V256.621H497.179V238.778Z" fill="#BE6361"/>
<path d="M468.784 223.297H408.439V239.565H468.784V223.297Z" fill="white"/>
<path d="M469.568 240.352H407.657V222.51H469.57V240.352H469.568ZM409.224 238.778H468.001V224.085H409.224V238.778Z" fill="#BE6361"/>
<path d="M505.441 222.51H468V240.353H505.441V222.51Z" fill="#BE6361"/>
<path d="M409.328 203.933H468.784V223.979H409.328C409.095 223.972 408.873 223.875 408.708 223.71C408.543 223.544 408.447 223.321 408.439 223.087V204.825C408.447 204.591 408.543 204.368 408.708 204.203C408.873 204.037 409.095 203.941 409.328 203.933Z" fill="white"/>
<path d="M469.568 224.767H409.328C408.889 224.754 408.47 224.573 408.159 224.261C407.849 223.949 407.669 223.529 407.657 223.087V204.825C407.669 204.384 407.85 203.965 408.16 203.653C408.471 203.342 408.889 203.161 409.328 203.149H469.568V224.772V224.767ZM409.328 204.72C409.301 204.722 409.276 204.733 409.256 204.753C409.237 204.772 409.225 204.798 409.224 204.825V223.087C409.225 223.114 409.237 223.14 409.256 223.159C409.276 223.179 409.301 223.19 409.328 223.192H468V204.72H409.328Z" fill="#BE6361"/>
<path d="M505.441 203.146H468V224.767H505.441V203.146Z" fill="#BE6361"/>
<path d="M459.319 187.98H398.974V204.248H459.319V187.98Z" fill="white"/>
<path d="M460.104 205.036H398.19V187.193H460.104V205.036ZM399.759 203.461H458.537V188.768H399.759V203.461Z" fill="#BE6361"/>
<path d="M495.923 187.193H458.482V205.036H495.923V187.193Z" fill="#BE6361"/>
<path d="M463.084 171.607H402.74V187.875H463.084V171.607Z" fill="white"/>
<path d="M463.868 188.663H401.955V170.82H463.868V188.663ZM403.524 187.088H462.301V172.395H403.524V187.088Z" fill="#BE6361"/>
<path d="M499.689 170.82H462.248V188.663H499.689V170.82Z" fill="#BE6361"/>
<path d="M144.689 241.733H93.3408V255.561H144.689V241.733Z" fill="white"/>
<path d="M145.356 256.23H92.6719V241.064H145.356V256.23ZM94.0082 254.892H144.023V242.402H94.0082V254.892Z" fill="#BE6361"/>
<path d="M175.88 241.064H144.021V256.231H175.88V241.064Z" fill="#BE6361"/>
<path d="M151.719 227.906H100.371V241.733H151.719V227.906Z" fill="white"/>
<path d="M152.386 242.402H99.7051V227.237H152.387V242.402H152.386ZM101.038 241.064H151.053V228.575H101.038V241.064Z" fill="#BE6361"/>
<path d="M182.911 227.237H151.052V242.403H182.911V227.237Z" fill="#BE6361"/>
<path d="M101.127 211.446H151.719V228.485H101.127C100.929 228.479 100.74 228.397 100.6 228.256C100.459 228.115 100.377 227.926 100.371 227.727V212.204C100.377 212.005 100.459 211.816 100.6 211.675C100.74 211.534 100.929 211.452 101.127 211.446Z" fill="white"/>
<path d="M152.386 229.155H101.127C100.753 229.144 100.397 228.99 100.133 228.725C99.8683 228.459 99.7152 228.102 99.7051 227.727V212.204C99.7158 211.83 99.8692 211.473 100.134 211.208C100.398 210.943 100.754 210.79 101.127 210.78H152.386V229.16V229.155ZM101.127 212.115C101.104 212.117 101.083 212.126 101.066 212.143C101.05 212.159 101.04 212.181 101.038 212.204V227.727C101.04 227.75 101.05 227.772 101.066 227.788C101.083 227.805 101.104 227.815 101.127 227.816H151.052V212.115H101.127Z" fill="#BE6361"/>
<path d="M182.911 210.777H151.052V229.155H182.911V210.777Z" fill="#BE6361"/>
<path d="M143.665 197.886H92.3174V211.714H143.665V197.886Z" fill="white"/>
<path d="M144.333 212.383H91.6499V197.217H144.333V212.383ZM92.985 211.045H142.999V198.555H92.985V211.045Z" fill="#BE6361"/>
<path d="M174.812 197.217H142.953V212.383H174.812V197.217Z" fill="#BE6361"/>
<path d="M146.869 183.969H95.521V197.797H146.869V183.969Z" fill="white"/>
<path d="M147.536 198.466H94.8535V183.3H147.536V198.466ZM96.1886 197.128H146.203V184.638H96.1886V197.128Z" fill="#BE6361"/>
<path d="M178.016 183.3H146.157V198.466H178.016V183.3Z" fill="#BE6361"/>
<path d="M165.171 427.53H226.326V448.122H165.171C164.93 448.114 164.702 448.015 164.532 447.844C164.362 447.673 164.263 447.444 164.256 447.203V428.446C164.25 428.324 164.27 428.202 164.314 428.088C164.358 427.974 164.425 427.871 164.511 427.784C164.597 427.698 164.7 427.631 164.814 427.587C164.927 427.543 165.049 427.523 165.171 427.53Z" fill="white"/>
<path d="M227.132 448.93H165.17C164.717 448.918 164.286 448.732 163.966 448.41C163.646 448.089 163.461 447.657 163.449 447.203V428.446C163.446 428.218 163.489 427.993 163.574 427.782C163.66 427.572 163.786 427.38 163.947 427.22C164.107 427.059 164.298 426.932 164.508 426.846C164.718 426.761 164.944 426.718 165.17 426.721H227.132V448.933V448.93ZM165.17 428.341C165.063 428.341 165.063 428.341 165.063 428.449V447.203C165.065 447.231 165.077 447.257 165.096 447.277C165.116 447.297 165.142 447.309 165.17 447.31H225.519V428.341H165.17Z" fill="#BE6361"/>
<path d="M264.031 426.721H225.52V448.93H264.031V426.721Z" fill="#BE6361"/>
<path d="M216.537 411.088H154.467V427.799H216.537V411.088Z" fill="white"/>
<path d="M217.344 428.608H153.66V410.28H217.344V428.608ZM155.274 426.991H215.732V411.897H155.274V426.991Z" fill="#BE6361"/>
<path d="M254.241 410.28H215.73V428.608H254.241V410.28Z" fill="#BE6361"/>
<path d="M217.774 457.285H155.704V480.842H217.774V457.285Z" fill="white"/>
<path d="M218.581 481.649H154.896V456.477H218.581V481.649ZM156.511 480.033H216.969V458.094H156.511V480.033Z" fill="#BE6361"/>
<path d="M255.479 456.477H216.967V481.651H255.479V456.477Z" fill="#BE6361"/>
<path d="M216.59 447.421H154.521V457.285H216.59V447.421Z" fill="white"/>
<path d="M217.398 458.094H153.714V446.612H217.398V458.094ZM155.331 456.477H215.789V448.229H155.331V456.477Z" fill="#BE6361"/>
<path d="M254.295 446.612H205.833V458.094H254.295V446.612Z" fill="#BE6361"/>
<path d="M476.342 468.016H422.581V482.509H476.342V468.016Z" fill="white"/>
<path d="M477.04 483.21H421.88V467.314H477.04V483.21ZM423.279 481.807H475.644V468.717H423.279V481.807Z" fill="#BE6361"/>
<path d="M509 467.314H475.643V483.211H509V467.314Z" fill="#BE6361"/>
<path d="M483.703 453.522H429.941V468.016H483.703V453.522Z" fill="white"/>
<path d="M484.402 468.717H429.244V452.821H484.403V468.717H484.402ZM430.64 467.315H483.006V454.224H430.64V467.315Z" fill="#BE6361"/>
<path d="M516.361 452.821H483.004V468.717H516.361V452.821Z" fill="#BE6361"/>
<path d="M430.733 436.271H483.703V454.13H430.733C430.525 454.123 430.328 454.037 430.181 453.89C430.034 453.742 429.948 453.544 429.941 453.335V437.065C429.948 436.857 430.034 436.658 430.181 436.511C430.328 436.363 430.525 436.277 430.733 436.271Z" fill="white"/>
<path d="M484.402 454.832H430.733C430.342 454.821 429.969 454.659 429.692 454.381C429.415 454.103 429.255 453.729 429.244 453.335V437.065C429.255 436.673 429.416 436.299 429.693 436.021C429.97 435.744 430.342 435.583 430.733 435.572H484.402V454.837V454.832ZM430.733 436.972C430.709 436.973 430.686 436.984 430.669 437.001C430.652 437.018 430.642 437.041 430.64 437.065V453.335C430.642 453.36 430.652 453.382 430.669 453.4C430.686 453.417 430.709 453.427 430.733 453.429H483.004V436.972H430.733Z" fill="#BE6361"/>
<path d="M516.361 435.57H483.004V454.832H516.361V435.57Z" fill="#BE6361"/>
<path d="M475.27 422.058H421.509V436.551H475.27V422.058Z" fill="white"/>
<path d="M475.969 437.253H420.81V421.357H475.969V437.253ZM422.208 435.85H474.573V422.76H422.208V435.85Z" fill="#BE6361"/>
<path d="M507.881 421.357H474.525V437.253H507.881V421.357Z" fill="#BE6361"/>
<path d="M478.625 407.471H424.863V421.964H478.625V407.471Z" fill="white"/>
<path d="M479.323 422.666H424.164V406.77H479.323V422.666ZM425.562 421.263H477.927V408.173H425.562V421.263Z" fill="#BE6361"/>
<path d="M511.236 406.77H477.88V422.666H511.236V406.77Z" fill="#BE6361"/>
<path d="M450.448 394.008H377.521V480.871H450.448V394.008Z" fill="white"/>
<path d="M450.448 481.65H377.521C377.316 481.645 377.12 481.561 376.974 481.416C376.829 481.271 376.745 481.076 376.74 480.871V394.008C376.745 393.803 376.829 393.608 376.975 393.463C377.12 393.318 377.316 393.235 377.521 393.23H450.448C450.654 393.235 450.85 393.318 450.995 393.463C451.141 393.608 451.225 393.803 451.23 394.008V480.871C451.225 481.076 451.141 481.271 450.996 481.416C450.85 481.561 450.654 481.645 450.448 481.65ZM378.303 480.092H449.667V394.787H378.303V480.092Z" fill="#BE6361"/>
<path d="M451.073 393.333H423.465V472.304H451.23L451.073 393.333Z" fill="#BE6361"/>
<path d="M424.299 481.598C424.094 481.593 423.898 481.51 423.752 481.365C423.606 481.219 423.522 481.024 423.518 480.819V394.008C423.524 393.806 423.609 393.613 423.755 393.472C423.9 393.331 424.096 393.252 424.299 393.252C424.502 393.252 424.698 393.331 424.844 393.472C424.989 393.613 425.074 393.806 425.081 394.008V480.817C425.076 481.023 424.992 481.218 424.847 481.364C424.701 481.509 424.505 481.593 424.299 481.598Z" fill="#BE6361"/>
<path d="M395.701 406.729H377.522C377.318 406.723 377.126 406.638 376.984 406.493C376.842 406.347 376.763 406.153 376.763 405.95C376.763 405.747 376.842 405.553 376.984 405.407C377.126 405.262 377.318 405.177 377.522 405.171H395.701C395.905 405.177 396.097 405.262 396.239 405.407C396.381 405.553 396.46 405.747 396.46 405.95C396.46 406.153 396.381 406.347 396.239 406.493C396.097 406.638 395.905 406.723 395.701 406.729Z" fill="#BE6361"/>
<path d="M423.101 412.18H404.921C404.718 412.174 404.525 412.09 404.383 411.944C404.242 411.799 404.163 411.604 404.163 411.402C404.163 411.199 404.242 411.004 404.383 410.859C404.525 410.713 404.718 410.629 404.921 410.623H423.101C423.304 410.629 423.497 410.713 423.638 410.859C423.78 411.004 423.859 411.199 423.859 411.402C423.859 411.604 423.78 411.799 423.638 411.944C423.497 412.09 423.304 412.174 423.101 412.18Z" fill="#BE6361"/>
<path d="M386.638 414.828H377.522C377.318 414.822 377.126 414.738 376.984 414.592C376.842 414.447 376.763 414.252 376.763 414.049C376.763 413.847 376.842 413.652 376.984 413.507C377.126 413.361 377.318 413.277 377.522 413.27H386.638C386.841 413.277 387.034 413.361 387.176 413.507C387.317 413.652 387.396 413.847 387.396 414.049C387.396 414.252 387.317 414.447 387.176 414.592C387.034 414.738 386.841 414.822 386.638 414.828Z" fill="#BE6361"/>
<path d="M404.921 426.147H390.494C390.287 426.147 390.088 426.065 389.942 425.919C389.795 425.773 389.713 425.575 389.713 425.368C389.713 425.162 389.795 424.964 389.942 424.818C390.088 424.672 390.287 424.59 390.494 424.59H404.921C405.128 424.59 405.327 424.672 405.473 424.818C405.62 424.964 405.702 425.162 405.702 425.368C405.702 425.575 405.62 425.773 405.473 425.919C405.327 426.065 405.128 426.147 404.921 426.147Z" fill="#BE6361"/>
<path d="M392.732 431.91H383.668C383.461 431.91 383.262 431.828 383.116 431.682C382.97 431.536 382.887 431.338 382.887 431.131C382.887 430.925 382.97 430.727 383.116 430.581C383.262 430.435 383.461 430.353 383.668 430.353H392.732C392.939 430.353 393.138 430.435 393.284 430.581C393.431 430.727 393.513 430.925 393.513 431.131C393.513 431.338 393.431 431.536 393.284 431.682C393.138 431.828 392.939 431.91 392.732 431.91Z" fill="#BE6361"/>
<path d="M412.162 463.53H397.733C397.628 463.533 397.524 463.515 397.427 463.477C397.329 463.439 397.24 463.383 397.165 463.31C397.09 463.237 397.03 463.15 396.99 463.054C396.949 462.958 396.928 462.855 396.928 462.751C396.928 462.646 396.949 462.543 396.99 462.447C397.03 462.351 397.09 462.264 397.165 462.191C397.24 462.119 397.329 462.062 397.427 462.024C397.524 461.986 397.628 461.969 397.733 461.972H412.16C412.363 461.978 412.556 462.063 412.697 462.208C412.839 462.353 412.918 462.548 412.918 462.751C412.918 462.953 412.839 463.148 412.697 463.293C412.556 463.439 412.363 463.524 412.16 463.53H412.162Z" fill="#BE6361"/>
<path d="M392.732 470.646H383.669C383.564 470.65 383.46 470.632 383.362 470.594C383.265 470.556 383.176 470.499 383.101 470.427C383.026 470.354 382.966 470.267 382.925 470.171C382.884 470.075 382.863 469.972 382.863 469.868C382.863 469.763 382.884 469.66 382.925 469.564C382.966 469.468 383.026 469.381 383.101 469.308C383.176 469.236 383.265 469.179 383.362 469.141C383.46 469.103 383.564 469.085 383.669 469.089H392.732C392.935 469.095 393.128 469.179 393.27 469.325C393.411 469.47 393.491 469.665 393.491 469.868C393.491 470.07 393.411 470.265 393.27 470.41C393.128 470.556 392.935 470.64 392.732 470.646Z" fill="#BE6361"/>
<path d="M423.101 439.906H409.089C408.986 439.906 408.885 439.886 408.79 439.846C408.695 439.807 408.609 439.75 408.536 439.678C408.464 439.605 408.406 439.52 408.367 439.425C408.328 439.331 408.308 439.229 408.308 439.127C408.308 439.025 408.328 438.924 408.367 438.829C408.406 438.735 408.464 438.649 408.536 438.577C408.609 438.504 408.695 438.447 408.79 438.408C408.885 438.369 408.986 438.349 409.089 438.349H423.101C423.308 438.349 423.507 438.431 423.653 438.577C423.8 438.723 423.882 438.921 423.882 439.127C423.882 439.334 423.8 439.532 423.653 439.678C423.507 439.824 423.308 439.906 423.101 439.906Z" fill="#BE6361"/>
<path d="M423.101 472.304H416.121C415.914 472.304 415.715 472.222 415.569 472.076C415.422 471.93 415.34 471.732 415.34 471.525C415.34 471.319 415.422 471.121 415.569 470.975C415.715 470.829 415.914 470.747 416.121 470.747H423.101C423.308 470.747 423.507 470.829 423.653 470.975C423.8 471.121 423.882 471.319 423.882 471.525C423.882 471.732 423.8 471.93 423.653 472.076C423.507 472.222 423.308 472.304 423.101 472.304Z" fill="#BE6361"/>
<path d="M399.608 450.655H381.429C381.221 450.655 381.023 450.573 380.876 450.427C380.73 450.281 380.647 450.083 380.647 449.877C380.647 449.67 380.73 449.472 380.876 449.326C381.023 449.18 381.221 449.098 381.429 449.098H399.608C399.815 449.098 400.014 449.18 400.16 449.326C400.307 449.472 400.389 449.67 400.389 449.877C400.389 450.083 400.307 450.281 400.16 450.427C400.014 450.573 399.815 450.655 399.608 450.655Z" fill="#BE6361"/>
<path d="M399.607 375.94C399.607 375.94 389.711 382.742 390.544 389.91L427.685 394.012L399.607 375.94Z" fill="white"/>
<path d="M427.685 394.787H427.581L390.44 390.685C390.267 390.665 390.107 390.587 389.984 390.465C389.861 390.342 389.783 390.182 389.763 390.011C388.877 382.482 398.722 375.576 399.139 375.32C399.269 375.232 399.424 375.184 399.582 375.184C399.74 375.184 399.894 375.232 400.025 375.32L428.104 393.389C428.249 393.475 428.361 393.606 428.422 393.762C428.484 393.919 428.491 394.091 428.443 394.252C428.396 394.413 428.295 394.553 428.159 394.651C428.022 394.749 427.856 394.798 427.688 394.792L427.685 394.787ZM391.273 389.176L424.454 392.866L399.608 376.875C397.889 378.224 391.117 383.624 391.273 389.179V389.176Z" fill="#BE6361"/>
<path d="M386.898 378.952L386.429 378.796L386.064 379.159C383.043 382.326 382.053 386.894 383.566 390.426C384.143 391.766 385.114 392.9 386.351 393.679C387.588 394.457 389.032 394.844 390.494 394.787H432.164L386.898 378.952Z" fill="#BE6361"/>
<path d="M174.417 131.447L152.45 159.99C136.899 147.689 123.105 133.328 111.453 117.304L141.001 96.6297C150.508 109.691 161.749 121.404 174.417 131.447Z" fill="white"/>
<path d="M152.604 161.069L151.986 160.554C136.382 148.203 122.538 133.791 110.834 117.714L110.37 117.098L141.208 95.55L141.672 96.167C151.139 109.165 162.328 120.826 174.933 130.83L175.5 131.292L152.604 161.069ZM112.536 117.51C123.885 133.011 137.256 146.933 152.295 158.91L173.335 131.604C161.046 121.777 150.105 110.382 140.795 97.7101L112.536 117.51Z" fill="#BE6361"/>
<path d="M405.536 111.843C410.767 116.537 416.05 121.231 421.281 125.925C413.365 134.432 404.321 141.824 394.399 147.897C390.825 141.863 387.2 135.827 383.623 129.793C391.699 124.81 399.069 118.773 405.536 111.843Z" fill="white"/>
<path d="M394.14 148.98L393.726 148.31C391.914 145.267 390.101 142.224 388.338 139.232C386.525 136.24 384.764 133.248 382.95 130.205L382.59 129.535L383.211 129.122C391.233 124.191 398.55 118.206 404.966 111.327L405.484 110.76L406.054 111.276C408.643 113.597 411.285 115.97 413.927 118.291C416.569 120.66 419.21 122.985 421.8 125.357L422.37 125.873L421.852 126.44C413.88 134.994 404.785 142.437 394.814 148.567L394.14 148.98ZM384.662 130.05C386.319 132.838 387.976 135.623 389.634 138.406C391.292 141.194 393.001 144.028 394.659 146.814C404.034 141.011 412.602 134.005 420.142 125.978L412.839 119.477C410.404 117.31 407.97 115.144 405.536 112.926C399.342 119.499 392.326 125.254 384.662 130.05Z" fill="#BE6361"/>
<path d="M295.977 134.993H171.349C170.371 134.992 169.403 135.184 168.499 135.558C167.596 135.932 166.775 136.481 166.083 137.174C165.392 137.867 164.844 138.689 164.47 139.594C164.097 140.499 163.905 141.469 163.906 142.448V223.396C163.905 224.375 164.097 225.345 164.47 226.25C164.844 227.155 165.392 227.978 166.083 228.67C166.775 229.363 167.596 229.912 168.499 230.286C169.403 230.66 170.371 230.852 171.349 230.851H296.03C297.997 230.842 299.879 230.052 301.265 228.655C302.65 227.257 303.425 225.366 303.42 223.396V142.448C303.421 141.469 303.229 140.499 302.856 139.594C302.482 138.689 301.934 137.867 301.243 137.174C300.551 136.481 299.731 135.932 298.827 135.558C297.924 135.184 296.955 134.992 295.977 134.993Z" fill="#2B2B2B"/>
<path d="M288.587 230.058H164.539C163.624 230.059 162.718 229.879 161.872 229.529C161.026 229.178 160.258 228.664 159.61 228.016C158.963 227.368 158.45 226.598 158.1 225.751C157.75 224.904 157.57 223.996 157.571 223.079V142.712C157.57 141.796 157.75 140.888 158.1 140.04C158.45 139.193 158.963 138.423 159.61 137.775C160.257 137.127 161.026 136.613 161.872 136.262C162.718 135.912 163.624 135.732 164.539 135.733H288.587C289.502 135.732 290.409 135.912 291.255 136.262C292.1 136.613 292.869 137.127 293.516 137.775C294.163 138.424 294.677 139.193 295.027 140.04C295.376 140.888 295.556 141.796 295.555 142.712V223.079C295.539 224.925 294.8 226.691 293.496 227.996C292.193 229.302 290.43 230.042 288.587 230.058Z" fill="white"/>
<path d="M288.587 230.851H164.539C162.483 230.848 160.511 230.028 159.057 228.571C157.602 227.114 156.783 225.139 156.78 223.079V142.712C156.783 140.652 157.602 138.677 159.057 137.22C160.511 135.764 162.483 134.944 164.539 134.94H288.587C290.644 134.944 292.616 135.764 294.07 137.22C295.525 138.677 296.343 140.652 296.347 142.712V223.079C296.325 225.133 295.5 227.097 294.05 228.55C292.599 230.003 290.638 230.829 288.587 230.851ZM164.539 136.526C163.728 136.523 162.923 136.681 162.172 136.99C161.421 137.3 160.739 137.756 160.165 138.331C159.591 138.906 159.136 139.589 158.827 140.341C158.518 141.093 158.36 141.899 158.364 142.712V223.079C158.36 223.892 158.518 224.698 158.827 225.45C159.136 226.202 159.591 226.885 160.165 227.461C160.739 228.036 161.421 228.491 162.172 228.801C162.923 229.111 163.728 229.268 164.539 229.265H288.587C290.219 229.245 291.778 228.587 292.932 227.431C294.086 226.275 294.743 224.713 294.763 223.079V142.712C294.766 141.899 294.609 141.093 294.3 140.341C293.991 139.589 293.536 138.906 292.962 138.331C292.387 137.756 291.705 137.3 290.954 136.99C290.204 136.681 289.399 136.523 288.587 136.526H164.539Z" fill="#2B2B2B"/>
<path d="M240.34 182.156C240.159 182.122 239.972 182.151 239.809 182.237C239.646 182.324 239.517 182.463 239.443 182.632L220.123 229.741C220.078 229.861 220.06 229.989 220.069 230.117C220.078 230.245 220.115 230.369 220.176 230.481C220.245 230.589 220.338 230.678 220.448 230.743C220.558 230.807 220.682 230.844 220.809 230.851H240.129C240.337 230.846 240.536 230.761 240.683 230.614C240.831 230.466 240.916 230.267 240.921 230.058V182.948C240.938 182.768 240.888 182.588 240.781 182.442C240.674 182.296 240.517 182.194 240.34 182.156Z" fill="#2B2B2B"/>
<path d="M257.074 255.437H202.387C201.522 255.437 200.667 255.239 199.889 254.859C199.111 254.479 198.429 253.927 197.895 253.245C197.361 252.562 196.989 251.767 196.807 250.92C196.625 250.072 196.638 249.194 196.845 248.352L212.89 182.948H240.182L225.138 244.175C224.928 245.022 224.915 245.905 225.099 246.758C225.283 247.61 225.66 248.409 226.2 249.093C226.74 249.777 227.429 250.328 228.215 250.704C229.001 251.079 229.863 251.269 230.733 251.26L257.813 251.207C258.182 251.207 257.813 254.326 257.813 254.697C257.815 254.795 257.798 254.892 257.761 254.983C257.725 255.074 257.671 255.156 257.602 255.226C257.532 255.295 257.45 255.349 257.359 255.386C257.269 255.422 257.172 255.439 257.074 255.437Z" fill="white"/>
<path d="M257.074 256.23H202.388C201.401 256.237 200.426 256.017 199.538 255.586C198.65 255.155 197.873 254.525 197.267 253.745C196.657 252.973 196.234 252.07 196.033 251.106C195.831 250.143 195.856 249.145 196.106 248.193L212.311 182.208H241.238L225.93 244.44C225.745 245.166 225.729 245.926 225.885 246.659C226.041 247.393 226.363 248.081 226.828 248.669C227.285 249.266 227.878 249.746 228.557 250.068C229.236 250.39 229.983 250.545 230.734 250.52L257.813 250.467C257.931 250.466 258.048 250.489 258.157 250.534C258.266 250.58 258.364 250.647 258.446 250.731C258.816 251.101 258.869 251.789 258.66 254.221C258.654 254.398 258.637 254.575 258.608 254.75C258.596 255.149 258.429 255.527 258.143 255.803C257.856 256.08 257.472 256.233 257.074 256.23ZM213.526 183.742L197.637 248.563C197.449 249.281 197.432 250.033 197.588 250.759C197.744 251.485 198.068 252.163 198.534 252.741C198.989 253.33 199.573 253.807 200.24 254.137C200.907 254.467 201.641 254.64 202.385 254.644H257.019C257.018 254.431 257.035 254.219 257.071 254.009C257.124 253.586 257.177 252.581 257.177 252.001L230.731 252.053C229.739 252.077 228.756 251.87 227.858 251.448C226.961 251.025 226.173 250.4 225.558 249.621C224.94 248.843 224.509 247.932 224.299 246.961C224.089 245.989 224.105 244.981 224.345 244.017L239.127 183.795H213.525L213.526 183.742Z" fill="#2B2B2B"/>
<path d="M225.804 106.298L222.3 110.264L234.732 121.29L238.236 117.323L225.804 106.298Z" fill="#F9D5FF"/>
<path d="M285.351 74.4889L280.491 76.5757L286.677 91.0391L291.537 88.9523L285.351 74.4889Z" fill="#F9D5FF"/>
<path d="M384.119 85.2009L371.787 96.3376L375.327 100.273L387.659 89.136L384.119 85.2009Z" fill="#F9D5FF"/>
<path d="M430.56 481.26H228.93V483.21H430.56V481.26Z" fill="#2B2B2B"/>
<path d="M308.1 481.26H104.52V483.21H308.1V481.26Z" fill="#2B2B2B"/>
<path d="M414.569 483.99C443.379 483.99 456.528 441.608 490.478 445.722C500.679 446.963 512.035 426.027 516.657 418.12C524.388 405.018 544.83 410.292 544.83 425.43V483.95L414.569 483.99Z" fill="url(#paint9_linear)"/>
<defs>
<linearGradient id="paint0_linear" x1="175.181" y1="319.323" x2="175.181" y2="477.041" gradientUnits="userSpaceOnUse">
<stop stop-color="#FFD8A1"/>
<stop offset="0.996" stop-color="white"/>
</linearGradient>
<linearGradient id="paint1_linear" x1="1.38459e+06" y1="-18730.7" x2="1.38459e+06" y2="-13053.2" gradientUnits="userSpaceOnUse">
<stop stop-color="#FFD8A1"/>
<stop offset="0.996" stop-color="white"/>
</linearGradient>
<linearGradient id="paint2_linear" x1="284.237" y1="281.274" x2="284.237" y2="136.81" gradientUnits="userSpaceOnUse">
<stop stop-color="#EA979A"/>
<stop offset="0.409" stop-color="#F2D38B"/>
<stop offset="0.499" stop-color="#7E9DAE"/>
<stop offset="0.599" stop-color="#90979D"/>
<stop offset="1" stop-color="#7EBDDB"/>
</linearGradient>
<linearGradient id="paint3_linear" x1="23520.9" y1="-42221.9" x2="23520.9" y2="-57983.5" gradientUnits="userSpaceOnUse">
<stop stop-color="#EA979A"/>
<stop offset="0.409" stop-color="#F2D38B"/>
<stop offset="0.499" stop-color="#7E9DAE"/>
<stop offset="0.599" stop-color="#90979D"/>
<stop offset="1" stop-color="#7EBDDB"/>
</linearGradient>
<linearGradient id="paint4_linear" x1="321.796" y1="478.213" x2="321.796" y2="232.874" gradientUnits="userSpaceOnUse">
<stop stop-color="#9774AC"/>
<stop offset="0.401" stop-color="#47A6D3"/>
<stop offset="0.501" stop-color="#A7A7AE"/>
<stop offset="0.591" stop-color="#E89AC0"/>
<stop offset="1" stop-color="#BFE7D1"/>
</linearGradient>
<linearGradient id="paint5_linear" x1="37130.3" y1="-45576.6" x2="37130.3" y2="-103700" gradientUnits="userSpaceOnUse">
<stop stop-color="#9774AC"/>
<stop offset="0.401" stop-color="#47A6D3"/>
<stop offset="0.501" stop-color="#A7A7AE"/>
<stop offset="0.591" stop-color="#E89AC0"/>
<stop offset="1" stop-color="#BFE7D1"/>
</linearGradient>
<linearGradient id="paint6_linear" x1="28874.7" y1="-37655.9" x2="28874.7" y2="-51720.5" gradientUnits="userSpaceOnUse">
<stop stop-color="#EA979A"/>
<stop offset="0.409" stop-color="#F2D38B"/>
<stop offset="0.499" stop-color="#7E9DAE"/>
<stop offset="0.599" stop-color="#90979D"/>
<stop offset="1" stop-color="#7EBDDB"/>
</linearGradient>
<linearGradient id="paint7_linear" x1="10921.3" y1="-21682.1" x2="10921.3" y2="-49551.8" gradientUnits="userSpaceOnUse">
<stop stop-color="#9774AC"/>
<stop offset="0.401" stop-color="#47A6D3"/>
<stop offset="0.501" stop-color="#A7A7AE"/>
<stop offset="0.591" stop-color="#E89AC0"/>
<stop offset="1" stop-color="#BFE7D1"/>
</linearGradient>
<linearGradient id="paint8_linear" x1="6631.6" y1="-6511.31" x2="6631.6" y2="-15139.9" gradientUnits="userSpaceOnUse">
<stop stop-color="#9774AC"/>
<stop offset="0.401" stop-color="#47A6D3"/>
<stop offset="0.501" stop-color="#A7A7AE"/>
<stop offset="0.591" stop-color="#E89AC0"/>
<stop offset="1" stop-color="#BFE7D1"/>
</linearGradient>
<linearGradient id="paint9_linear" x1="479.7" y1="423.824" x2="479.7" y2="481.579" gradientUnits="userSpaceOnUse">
<stop stop-color="#FFD8A1"/>
<stop offset="0.996" stop-color="white"/>
</linearGradient>
</defs>
</svg>
