<svg width="278" height="278" viewBox="0 0 278 278" fill="none" xmlns="http://www.w3.org/2000/svg">
<path d="M139.002 271.737C212.31 271.737 271.737 212.309 271.737 139.001C271.737 65.6931 212.31 6.26538 139.002 6.26538C65.6939 6.26538 6.26611 65.6931 6.26611 139.001C6.26611 212.309 65.6939 271.737 139.002 271.737Z" fill="#5E95CE"/>
<path d="M139 278C111.508 278 84.6341 269.848 61.7756 254.574C38.9172 239.301 21.1012 217.592 10.5807 192.193C0.060123 166.794 -2.69245 138.845 2.67102 111.882C8.0345 84.9185 21.2731 60.1511 40.7128 40.7117C60.1524 21.2722 84.92 8.03389 111.883 2.67072C138.847 -2.69245 166.795 0.0604359 192.194 10.5813C217.593 21.1021 239.302 38.9183 254.575 61.7769C269.848 84.6356 278 111.51 278 139.002C277.958 175.854 263.3 211.184 237.242 237.243C211.183 263.301 175.852 277.959 139 278ZM139 12.5282C113.986 12.5282 89.5343 19.9456 68.7362 33.8424C47.938 47.7393 31.7278 67.4914 22.1554 90.6011C12.583 113.711 10.0783 139.14 14.9581 163.673C19.838 188.206 31.8831 210.741 49.5704 228.429C67.2576 246.116 89.7926 258.162 114.326 263.042C138.859 267.922 164.288 265.417 187.398 255.845C210.507 246.273 230.26 230.063 244.157 209.265C258.054 188.467 265.472 164.015 265.472 139.002C265.434 105.471 252.098 73.3237 228.388 49.6136C204.678 25.9034 172.531 12.5663 139 12.5282Z" fill="black"/>
<path d="M138.99 80.8576C99.6209 80.8576 62.2768 71.5717 36.5356 55.3856C36.1874 55.1667 35.8856 54.8813 35.6477 54.5458C35.4097 54.2103 35.2402 53.8312 35.1487 53.4302C35.0573 53.0292 35.0457 52.614 35.1147 52.2085C35.1836 51.803 35.3318 51.4151 35.5507 51.0669C35.7696 50.7186 36.055 50.4169 36.3905 50.1789C36.726 49.941 37.1051 49.7714 37.5061 49.68C37.9071 49.5885 38.3223 49.5769 38.7278 49.6459C39.1333 49.7149 39.5212 49.8631 39.8694 50.082C64.6396 65.6594 100.768 74.5936 138.99 74.5936C177.212 74.5936 213.34 65.6594 238.112 50.082C238.46 49.8631 238.848 49.7149 239.253 49.6459C239.659 49.5769 240.074 49.5885 240.475 49.68C240.876 49.7714 241.255 49.941 241.591 50.1789C241.926 50.4169 242.212 50.7186 242.43 51.0669C242.649 51.4151 242.798 51.803 242.867 52.2085C242.935 52.614 242.924 53.0292 242.832 53.4302C242.741 53.8312 242.571 54.2103 242.333 54.5458C242.096 54.8813 241.794 55.1667 241.446 55.3856C215.703 71.5717 178.359 80.8576 138.99 80.8576Z" fill="black"/>
<path d="M38.2058 228.399C37.5261 228.399 36.8645 228.179 36.3211 227.771C35.7777 227.363 35.3818 226.789 35.1932 226.136C35.0047 225.482 35.0337 224.786 35.2759 224.151C35.5181 223.516 35.9603 222.977 36.5358 222.615C62.277 206.426 99.6208 197.143 138.99 197.143C178.36 197.143 215.703 206.426 241.446 222.615C241.794 222.834 242.096 223.119 242.334 223.455C242.572 223.79 242.741 224.169 242.833 224.57C242.924 224.971 242.936 225.386 242.867 225.792C242.798 226.197 242.65 226.585 242.431 226.934C242.212 227.282 241.927 227.584 241.591 227.822C241.256 228.059 240.876 228.229 240.475 228.32C240.074 228.412 239.659 228.424 239.254 228.355C238.848 228.286 238.46 228.137 238.112 227.918C213.34 212.341 177.212 203.407 138.99 203.407C100.768 203.407 64.6398 212.341 39.8696 227.918C39.3713 228.232 38.7945 228.398 38.2058 228.399Z" fill="black"/>
<path d="M139.001 274.869C99.1139 274.869 66.6636 213.92 66.6636 139.002C66.6636 64.0849 99.1139 3.13281 139.001 3.13281C178.888 3.13281 211.34 64.0847 211.34 139.002C211.34 213.92 178.888 274.869 139.001 274.869ZM139.001 9.39684C102.569 9.39684 72.9276 67.5379 72.9276 139.002C72.9276 210.467 102.569 268.605 139.001 268.605C175.435 268.605 205.076 210.467 205.076 139.002C205.076 67.5379 175.435 9.39684 139.001 9.39684Z" fill="black"/>
<path d="M139.001 274.869C138.589 274.869 138.182 274.788 137.802 274.63C137.422 274.473 137.077 274.242 136.786 273.952C136.495 273.661 136.264 273.315 136.107 272.935C135.949 272.555 135.869 272.148 135.869 271.737V6.26483C135.869 5.43416 136.199 4.63752 136.786 4.05016C137.373 3.46279 138.17 3.13281 139.001 3.13281C139.831 3.13281 140.628 3.46279 141.215 4.05016C141.803 4.63752 142.133 5.43416 142.133 6.26483V271.737C142.133 272.148 142.052 272.555 141.894 272.935C141.737 273.315 141.506 273.661 141.216 273.952C140.925 274.242 140.579 274.473 140.199 274.63C139.819 274.788 139.412 274.869 139.001 274.869Z" fill="black"/>
<path d="M271.651 142.133H6.26629C5.43563 142.133 4.63899 141.803 4.05162 141.216C3.46426 140.628 3.13428 139.832 3.13428 139.001C3.13428 138.17 3.46426 137.374 4.05162 136.786C4.63899 136.199 5.43563 135.869 6.26629 135.869H271.651C272.482 135.869 273.278 136.199 273.866 136.786C274.453 137.374 274.783 138.17 274.783 139.001C274.783 139.832 274.453 140.628 273.866 141.216C273.278 141.803 272.482 142.133 271.651 142.133Z" fill="black"/>
</svg>
