<svg xmlns="http://www.w3.org/2000/svg"  viewBox="0 0 64 64" width="64px" height="64px"><radialGradient id="WqrUgzTXD0j5N2eddR8SPa" cx="32" cy="32.5" r="30.751" gradientUnits="userSpaceOnUse" spreadMethod="reflect"><stop offset="0" stop-color="#c5f1ff"/><stop offset=".35" stop-color="#cdf3ff"/><stop offset=".907" stop-color="#e4faff"/><stop offset="1" stop-color="#e9fbff"/></radialGradient><path fill="url(#WqrUgzTXD0j5N2eddR8SPa)" d="M60.357,47H57c-1.105,0-2-0.895-2-2c0-1.105,0.895-2,2-2h0.412 c1.139,0,2.202-0.721,2.497-1.821C60.355,39.516,59.096,38,57.5,38H42V27h14c2.335,0,4.22-2.028,3.979-4.41 c-0.21-2.075-2.082-3.59-4.168-3.59H46c-1.105,0-2-0.895-2-2c0-1.105,0.895-2,2-2h6.357c1.308,0,2.499-0.941,2.63-2.242 C55.137,11.261,53.966,10,52.5,10h-8C43.672,10,43,9.328,43,8.5S43.672,7,44.5,7h3.857c1.308,0,2.499-0.941,2.63-2.242 C51.137,3.261,49.966,2,48.5,2L15.643,2c-1.308,0-2.499,0.941-2.63,2.242C12.863,5.739,14.034,7,15.5,7H19c1.105,0,2,0.895,2,2 c0,1.105-0.895,2-2,2H6.189c-2.086,0-3.958,1.514-4.168,3.59C1.78,16.972,3.665,19,6,19h2.5c1.933,0,3.5,1.567,3.5,3.5 c0,1.933-1.567,3.5-3.5,3.5H5.189c-2.086,0-3.958,1.514-4.168,3.59C0.78,31.972,2.665,34,5,34h17v12H7.588 c-1.139,0-2.202,0.721-2.497,1.821C4.645,49.484,5.904,51,7.5,51H9c1.105,0,2,0.895,2,2c0,1.105-0.895,2-2,2H6.189 c-2.086,0-3.958,1.514-4.168,3.59C1.78,60.972,3.665,63,6,63h48.811c2.086,0,3.958-1.514,4.168-3.59C59.22,57.028,57.335,55,55,55 h-0.5c-0.828,0-1.5-0.672-1.5-1.5s0.672-1.5,1.5-1.5h6c1.466,0,2.637-1.261,2.487-2.758C62.857,47.941,61.665,47,60.357,47z"/><radialGradient id="WqrUgzTXD0j5N2eddR8SPb" cx="32" cy="32.5" r="30.751" gradientUnits="userSpaceOnUse" spreadMethod="reflect"><stop offset="0" stop-color="#b8efff"/><stop offset=".642" stop-color="#d4f6ff"/><stop offset="1" stop-color="#e5faff"/></radialGradient><path fill="url(#WqrUgzTXD0j5N2eddR8SPb)" d="M60.357,47H57c-1.105,0-2-0.895-2-2c0-1.105,0.895-2,2-2h0.412 c1.139,0,2.202-0.721,2.497-1.821C60.355,39.516,59.096,38,57.5,38H42V27h14c2.335,0,4.22-2.028,3.979-4.41 c-0.21-2.075-2.082-3.59-4.168-3.59H46c-1.105,0-2-0.895-2-2c0-1.105,0.895-2,2-2h6.357c1.308,0,2.499-0.941,2.63-2.242 C55.137,11.261,53.966,10,52.5,10h-8C43.672,10,43,9.328,43,8.5S43.672,7,44.5,7h3.857c1.308,0,2.499-0.941,2.63-2.242 C51.137,3.261,49.966,2,48.5,2L15.643,2c-1.308,0-2.499,0.941-2.63,2.242C12.863,5.739,14.034,7,15.5,7H19c1.105,0,2,0.895,2,2 c0,1.105-0.895,2-2,2H6.189c-2.086,0-3.958,1.514-4.168,3.59C1.78,16.972,3.665,19,6,19h2.5c1.933,0,3.5,1.567,3.5,3.5 c0,1.933-1.567,3.5-3.5,3.5H5.189c-2.086,0-3.958,1.514-4.168,3.59C0.78,31.972,2.665,34,5,34h17v12H7.588 c-1.139,0-2.202,0.721-2.497,1.821C4.645,49.484,5.904,51,7.5,51H9c1.105,0,2,0.895,2,2c0,1.105-0.895,2-2,2H6.189 c-2.086,0-3.958,1.514-4.168,3.59C1.78,60.972,3.665,63,6,63h48.811c2.086,0,3.958-1.514,4.168-3.59C59.22,57.028,57.335,55,55,55 h-0.5c-0.828,0-1.5-0.672-1.5-1.5s0.672-1.5,1.5-1.5h6c1.466,0,2.637-1.261,2.487-2.758C62.857,47.941,61.665,47,60.357,47z"/><linearGradient id="WqrUgzTXD0j5N2eddR8SPc" x1="32" x2="32" y1="59.075" y2="15.075" gradientUnits="userSpaceOnUse" spreadMethod="reflect"><stop offset="0" stop-color="#ffc050"/><stop offset=".004" stop-color="#ffc050"/><stop offset=".641" stop-color="#ffbe75"/><stop offset="1" stop-color="#ffbd85"/><stop offset="1" stop-color="#ffbd85"/></linearGradient><path fill="url(#WqrUgzTXD0j5N2eddR8SPc)" d="M50,12H14c-2.209,0-4,1.791-4,4v36c0,2.209,1.791,4,4,4h36c2.209,0,4-1.791,4-4V16 C54,13.791,52.209,12,50,12z"/><linearGradient id="WqrUgzTXD0j5N2eddR8SPd" x1="21" x2="21" y1="64.039" y2="18.283" gradientUnits="userSpaceOnUse" spreadMethod="reflect"><stop offset="0" stop-color="#ffc96a"/><stop offset=".004" stop-color="#ffc96a"/><stop offset=".578" stop-color="#ffc887"/><stop offset="1" stop-color="#ffc797"/><stop offset="1" stop-color="#ffc797"/></linearGradient><path fill="url(#WqrUgzTXD0j5N2eddR8SPd)" d="M32,14.5L32,14.5c0-1.381-1.119-2.5-2.5-2.5H14c-2.209,0-4,1.791-4,4v25h10 c1.657,0,3-1.343,3-3v0c0-1.657-1.343-3-3-3h-1c-1.657,0-3-1.343-3-3v0c0-1.657,1.343-3,3-3h4c1.657,0,3-1.343,3-3v0 c0-1.657-1.343-3-3-3h-3c-1.657,0-3-1.343-3-3v0c0-1.657,1.343-3,3-3h9.5C30.881,17,32,15.881,32,14.5z"/><linearGradient id="WqrUgzTXD0j5N2eddR8SPe" x1="43.5" x2="43.5" y1="68.994" y2="51.994" gradientUnits="userSpaceOnUse" spreadMethod="reflect"><stop offset="0" stop-color="#ff8b67"/><stop offset=".847" stop-color="#ffa76a"/><stop offset="1" stop-color="#ffad6b"/></linearGradient><path fill="url(#WqrUgzTXD0j5N2eddR8SPe)" d="M54,52V39c-3.083,0-10.118,0-11.872,0c-1.451,0-2.786,0.972-3.068,2.395 C38.681,43.307,40.152,45,42,45h0.5c1.381,0,2.5,1.119,2.5,2.5c0,1.381-1.119,2.5-2.5,2.5h-6.369c-1.451,0-2.789,0.972-3.071,2.395 C32.681,54.307,34.152,56,36,56h14C52.209,56,54,54.209,54,52z"/><linearGradient id="WqrUgzTXD0j5N2eddR8SPf" x1="47" x2="47" y1="6" y2="32" gradientUnits="userSpaceOnUse" spreadMethod="reflect"><stop offset="0" stop-color="#a4a4a4"/><stop offset=".63" stop-color="#7f7f7f"/><stop offset="1" stop-color="#6f6f6f"/><stop offset="1" stop-color="#6f6f6f"/></linearGradient><path fill="url(#WqrUgzTXD0j5N2eddR8SPf)" d="M58,6H43.985c-1.765,0-2.648,2.133-1.401,3.381l4.517,4.517L35.036,25.964 c-1.381,1.381-1.381,3.619,0,5v0c1.381,1.381,3.619,1.381,5,0l12.066-12.066l4.517,4.517C57.867,24.664,60,23.78,60,22.015V8 C60,6.895,59.105,6,58,6z"/></svg>