<svg fill="#000000" xmlns="http://www.w3.org/2000/svg"  viewBox="0 0 30 30" width="30px" height="30px"><path d="M 15 3 C 12.445077 3 10.0833 3.8185753 8.1464844 5.1816406 A 1.0002808 1.0002808 0 1 0 9.296875 6.8183594 C 10.918059 5.6774247 12.870923 5 15 5 C 20.534534 5 25 9.4654664 25 15 C 25 20.534534 20.534534 25 15 25 C 12.870923 25 10.918059 24.322575 9.296875 23.181641 A 1.0002805 1.0002805 0 0 0 8.1464844 24.818359 C 10.0833 26.181425 12.445077 27 15 27 C 21.615466 27 27 21.615466 27 15 C 27 8.3845336 21.615466 3 15 3 z M 6.9804688 9.9902344 A 1.0001 1.0001 0 0 0 6.2929688 10.292969 L 2.3808594 14.205078 A 1.0001 1.0001 0 0 0 2.3828125 15.796875 L 6.2929688 19.707031 A 1.0001 1.0001 0 1 0 7.7070312 18.292969 L 5.4140625 16 L 16 16 A 1.0001 1.0001 0 1 0 16 14 L 5.4140625 14 L 7.7070312 11.707031 A 1.0001 1.0001 0 0 0 6.9804688 9.9902344 z"/></svg>