<svg width="121" height="22" viewBox="0 0 121 22" fill="none" xmlns="http://www.w3.org/2000/svg">
<path d="M4.74219 5.14691V12.9946H8.66602C9.20378 12.9946 9.70964 12.8943 10.1836 12.6938C10.6576 12.4842 11.0723 12.2016 11.4277 11.8461C11.7832 11.4907 12.0612 11.0759 12.2617 10.602C12.4714 10.1189 12.5762 9.6085 12.5762 9.07074C12.5762 8.53298 12.4714 8.02712 12.2617 7.55316C12.0612 7.07009 11.7832 6.65082 11.4277 6.29535C11.0723 5.93988 10.6576 5.66189 10.1836 5.46136C9.70964 5.25173 9.20378 5.14691 8.66602 5.14691H4.74219ZM4.74219 20.8286H0.818359V1.22308H8.66602C9.38607 1.22308 10.0788 1.31879 10.7441 1.51019C11.4095 1.69248 12.0293 1.95681 12.6035 2.30316C13.1868 2.6404 13.7155 3.05056 14.1895 3.53363C14.6725 4.00759 15.0827 4.53623 15.4199 5.11957C15.7663 5.7029 16.0306 6.32725 16.2129 6.99261C16.4043 7.65798 16.5 8.35069 16.5 9.07074C16.5 10.1463 16.2949 11.1625 15.8848 12.1196C15.4746 13.0675 14.9141 13.8969 14.2031 14.6078C13.4922 15.3188 12.6582 15.8793 11.7012 16.2895C10.7533 16.6996 9.74154 16.9047 8.66602 16.9047H4.74219V20.8286ZM22.1738 20.8286H18.4141V0.361755H22.1738V20.8286ZM39.209 20.8286H38.3066L36.8574 18.8188C36.502 19.1378 36.1237 19.4386 35.7227 19.7211C35.3307 19.9946 34.916 20.2361 34.4785 20.4457C34.041 20.6463 33.5898 20.8058 33.125 20.9243C32.6693 21.0427 32.2044 21.102 31.7305 21.102C30.7005 21.102 29.7298 20.9288 28.8184 20.5825C27.916 20.2361 27.123 19.7348 26.4395 19.0786C25.765 18.4132 25.2318 17.602 24.8398 16.645C24.4479 15.6879 24.252 14.5987 24.252 13.3774C24.252 12.2381 24.4479 11.1944 24.8398 10.2465C25.2318 9.28949 25.765 8.46918 26.4395 7.78558C27.123 7.10199 27.916 6.57334 28.8184 6.19965C29.7298 5.81683 30.7005 5.62543 31.7305 5.62543C32.2044 5.62543 32.6738 5.68467 33.1387 5.80316C33.6035 5.92165 34.0547 6.08571 34.4922 6.29535C34.9297 6.50498 35.3444 6.75108 35.7363 7.03363C36.1374 7.31618 36.5111 7.62152 36.8574 7.94965L38.3066 6.21332H39.209V20.8286ZM35.4492 13.3774C35.4492 12.867 35.349 12.3748 35.1484 11.9008C34.957 11.4177 34.6927 10.9939 34.3555 10.6293C34.0182 10.2556 33.6217 9.95941 33.166 9.74066C32.7194 9.5128 32.2409 9.39886 31.7305 9.39886C31.2201 9.39886 30.737 9.48545 30.2812 9.65863C29.8346 9.83181 29.4427 10.087 29.1055 10.4243C28.7773 10.7615 28.5176 11.1808 28.3262 11.6821C28.1348 12.1743 28.0391 12.7394 28.0391 13.3774C28.0391 14.0154 28.1348 14.5851 28.3262 15.0864C28.5176 15.5786 28.7773 15.9933 29.1055 16.3305C29.4427 16.6677 29.8346 16.923 30.2812 17.0961C30.737 17.2693 31.2201 17.3559 31.7305 17.3559C32.2409 17.3559 32.7194 17.2465 33.166 17.0278C33.6217 16.7999 34.0182 16.5037 34.3555 16.1391C34.6927 15.7654 34.957 15.3416 35.1484 14.8676C35.349 14.3845 35.4492 13.8878 35.4492 13.3774ZM45.7988 20.8286H42.0664V6.18597H42.9688L44.1992 7.60785C44.8008 7.06097 45.4798 6.6417 46.2363 6.35004C47.002 6.04926 47.7995 5.89886 48.6289 5.89886C49.5221 5.89886 50.3652 6.07204 51.1582 6.4184C51.9512 6.75564 52.6439 7.22504 53.2363 7.8266C53.8288 8.41905 54.2936 9.11631 54.6309 9.9184C54.9772 10.7114 55.1504 11.559 55.1504 12.4614V20.8286H51.418V12.4614C51.418 12.0786 51.3451 11.7185 51.1992 11.3813C51.0534 11.0349 50.8529 10.7342 50.5977 10.4789C50.3424 10.2237 50.0462 10.0232 49.709 9.87738C49.3717 9.73155 49.0117 9.65863 48.6289 9.65863C48.237 9.65863 47.8678 9.73155 47.5215 9.87738C47.1751 10.0232 46.8743 10.2237 46.6191 10.4789C46.3639 10.7342 46.1634 11.0349 46.0176 11.3813C45.8717 11.7185 45.7988 12.0786 45.7988 12.4614V20.8286ZM73.9219 11.0258C73.9219 11.9282 73.8034 12.7986 73.5664 13.6371C73.3385 14.4666 73.0104 15.2459 72.582 15.975C72.1536 16.6951 71.6432 17.3559 71.0508 17.9575C70.4583 18.5499 69.7975 19.0603 69.0684 19.4887C68.3392 19.9171 67.5553 20.2498 66.7168 20.4868C65.8874 20.7146 65.0215 20.8286 64.1191 20.8286H58.2129V1.22308H64.1191C65.0215 1.22308 65.8874 1.34157 66.7168 1.57855C67.5553 1.80642 68.3392 2.13454 69.0684 2.56293C69.7975 2.99131 70.4583 3.50629 71.0508 4.10785C71.6432 4.7003 72.1536 5.3611 72.582 6.09027C73.0104 6.81032 73.3385 7.58962 73.5664 8.42816C73.8034 9.25759 73.9219 10.1235 73.9219 11.0258ZM69.998 11.0258C69.998 10.2146 69.8431 9.45355 69.5332 8.74261C69.2324 8.03168 68.8132 7.41189 68.2754 6.88324C67.7467 6.34548 67.1224 5.92165 66.4023 5.61176C65.6914 5.30186 64.9303 5.14691 64.1191 5.14691H62.1641V16.9047H64.1191C64.9303 16.9047 65.6914 16.7543 66.4023 16.4536C67.1224 16.1437 67.7467 15.7244 68.2754 15.1957C68.8132 14.658 69.2324 14.0336 69.5332 13.3227C69.8431 12.6026 69.998 11.837 69.998 11.0258ZM90.2871 13.3774C90.2871 14.4711 90.0911 15.492 89.6992 16.4399C89.3073 17.3787 88.7741 18.1944 88.0996 18.8871C87.4251 19.5707 86.6322 20.1131 85.7207 20.5141C84.8184 20.906 83.8477 21.102 82.8086 21.102C81.7786 21.102 80.8079 20.906 79.8965 20.5141C78.9941 20.1131 78.2012 19.5707 77.5176 18.8871C76.8431 18.1944 76.3099 17.3787 75.918 16.4399C75.526 15.492 75.3301 14.4711 75.3301 13.3774C75.3301 12.2654 75.526 11.2355 75.918 10.2875C76.3099 9.33962 76.8431 8.52386 77.5176 7.84027C78.2012 7.14756 78.9941 6.60524 79.8965 6.21332C80.8079 5.82139 81.7786 5.62543 82.8086 5.62543C83.8477 5.62543 84.8184 5.81228 85.7207 6.18597C86.6322 6.55056 87.4251 7.07465 88.0996 7.75824C88.7741 8.43272 89.3073 9.24847 89.6992 10.2055C90.0911 11.1534 90.2871 12.2107 90.2871 13.3774ZM86.5273 13.3774C86.5273 12.7758 86.4271 12.2335 86.2266 11.7504C86.0352 11.2582 85.7708 10.839 85.4336 10.4926C85.0964 10.1371 84.6999 9.86827 84.2441 9.68597C83.7975 9.49457 83.319 9.39886 82.8086 9.39886C82.2982 9.39886 81.8151 9.49457 81.3594 9.68597C80.9128 9.86827 80.5208 10.1371 80.1836 10.4926C79.8555 10.839 79.5957 11.2582 79.4043 11.7504C79.2129 12.2335 79.1172 12.7758 79.1172 13.3774C79.1172 13.9425 79.2129 14.4666 79.4043 14.9496C79.5957 15.4327 79.8555 15.852 80.1836 16.2075C80.5208 16.5629 80.9128 16.8455 81.3594 17.0551C81.8151 17.2556 82.2982 17.3559 82.8086 17.3559C83.319 17.3559 83.7975 17.2602 84.2441 17.0688C84.6999 16.8774 85.0964 16.6085 85.4336 16.2621C85.7708 15.9158 86.0352 15.4965 86.2266 15.0043C86.4271 14.5121 86.5273 13.9698 86.5273 13.3774ZM96.084 20.8286H92.3516V6.18597H93.2539L94.4844 7.60785C95.0859 7.06097 95.765 6.6417 96.5215 6.35004C97.2871 6.04926 98.0846 5.89886 98.9141 5.89886C99.8073 5.89886 100.65 6.07204 101.443 6.4184C102.236 6.75564 102.929 7.22504 103.521 7.8266C104.114 8.41905 104.579 9.11631 104.916 9.9184C105.262 10.7114 105.436 11.559 105.436 12.4614V20.8286H101.703V12.4614C101.703 12.0786 101.63 11.7185 101.484 11.3813C101.339 11.0349 101.138 10.7342 100.883 10.4789C100.628 10.2237 100.331 10.0232 99.9941 9.87738C99.6569 9.73155 99.2969 9.65863 98.9141 9.65863C98.5221 9.65863 98.153 9.73155 97.8066 9.87738C97.4603 10.0232 97.1595 10.2237 96.9043 10.4789C96.6491 10.7342 96.4486 11.0349 96.3027 11.3813C96.1569 11.7185 96.084 12.0786 96.084 12.4614V20.8286ZM113.926 17.2465C114.072 17.2921 114.217 17.324 114.363 17.3422C114.509 17.3513 114.655 17.3559 114.801 17.3559C115.165 17.3559 115.516 17.3058 115.854 17.2055C116.191 17.1052 116.505 16.964 116.797 16.7817C117.098 16.5903 117.362 16.3624 117.59 16.0981C117.827 15.8246 118.018 15.5239 118.164 15.1957L120.898 17.9438C120.552 18.436 120.151 18.878 119.695 19.27C119.249 19.6619 118.761 19.9946 118.232 20.268C117.713 20.5414 117.161 20.7465 116.578 20.8832C116.004 21.0291 115.411 21.102 114.801 21.102C113.771 21.102 112.8 20.9106 111.889 20.5278C110.986 20.145 110.193 19.6118 109.51 18.9282C108.835 18.2446 108.302 17.4334 107.91 16.4946C107.518 15.5467 107.322 14.5076 107.322 13.3774C107.322 12.2198 107.518 11.1625 107.91 10.2055C108.302 9.24847 108.835 8.43272 109.51 7.75824C110.193 7.08376 110.986 6.55967 111.889 6.18597C112.8 5.81228 113.771 5.62543 114.801 5.62543C115.411 5.62543 116.008 5.69834 116.592 5.84418C117.175 5.99001 117.727 6.19965 118.246 6.47308C118.775 6.74652 119.267 7.08376 119.723 7.4848C120.178 7.87673 120.579 8.31879 120.926 8.81097L113.926 17.2465ZM115.84 9.54926C115.667 9.48545 115.493 9.44444 115.32 9.42621C115.156 9.40798 114.983 9.39886 114.801 9.39886C114.29 9.39886 113.807 9.49457 113.352 9.68597C112.905 9.86827 112.513 10.1326 112.176 10.4789C111.848 10.8253 111.588 11.2446 111.396 11.7368C111.205 12.2198 111.109 12.7667 111.109 13.3774C111.109 13.5141 111.114 13.669 111.123 13.8422C111.141 14.0154 111.164 14.1931 111.191 14.3754C111.228 14.5486 111.269 14.7172 111.314 14.8813C111.36 15.0453 111.419 15.1912 111.492 15.3188L115.84 9.54926Z" fill="black"/>
</svg>
