<svg width="121" height="22" viewBox="0 0 121 22" fill="none" xmlns="http://www.w3.org/2000/svg">
<path d="M4.74219 5.31836V13.166H8.66602C9.20378 13.166 9.70964 13.0658 10.1836 12.8652C10.6576 12.6556 11.0723 12.373 11.4277 12.0176C11.7832 11.6621 12.0612 11.2474 12.2617 10.7734C12.4714 10.2904 12.5762 9.77995 12.5762 9.24219C12.5762 8.70443 12.4714 8.19857 12.2617 7.72461C12.0612 7.24154 11.7832 6.82227 11.4277 6.4668C11.0723 6.11133 10.6576 5.83333 10.1836 5.63281C9.70964 5.42318 9.20378 5.31836 8.66602 5.31836H4.74219ZM4.74219 21H0.818359V1.39453H8.66602C9.38607 1.39453 10.0788 1.49023 10.7441 1.68164C11.4095 1.86393 12.0293 2.12826 12.6035 2.47461C13.1868 2.81185 13.7155 3.22201 14.1895 3.70508C14.6725 4.17904 15.0827 4.70768 15.4199 5.29102C15.7663 5.87435 16.0306 6.4987 16.2129 7.16406C16.4043 7.82943 16.5 8.52214 16.5 9.24219C16.5 10.3177 16.2949 11.334 15.8848 12.291C15.4746 13.2389 14.9141 14.0684 14.2031 14.7793C13.4922 15.4902 12.6582 16.0508 11.7012 16.4609C10.7533 16.8711 9.74154 17.0762 8.66602 17.0762H4.74219V21ZM22.1738 21H18.4141V0.533203H22.1738V21ZM39.209 21H38.3066L36.8574 18.9902C36.502 19.3092 36.1237 19.61 35.7227 19.8926C35.3307 20.166 34.916 20.4076 34.4785 20.6172C34.041 20.8177 33.5898 20.9772 33.125 21.0957C32.6693 21.2142 32.2044 21.2734 31.7305 21.2734C30.7005 21.2734 29.7298 21.1003 28.8184 20.7539C27.916 20.4076 27.123 19.9062 26.4395 19.25C25.765 18.5846 25.2318 17.7734 24.8398 16.8164C24.4479 15.8594 24.252 14.7702 24.252 13.5488C24.252 12.4095 24.4479 11.3659 24.8398 10.418C25.2318 9.46094 25.765 8.64062 26.4395 7.95703C27.123 7.27344 27.916 6.74479 28.8184 6.37109C29.7298 5.98828 30.7005 5.79688 31.7305 5.79688C32.2044 5.79688 32.6738 5.85612 33.1387 5.97461C33.6035 6.0931 34.0547 6.25716 34.4922 6.4668C34.9297 6.67643 35.3444 6.92253 35.7363 7.20508C36.1374 7.48763 36.5111 7.79297 36.8574 8.12109L38.3066 6.38477H39.209V21ZM35.4492 13.5488C35.4492 13.0384 35.349 12.5462 35.1484 12.0723C34.957 11.5892 34.6927 11.1654 34.3555 10.8008C34.0182 10.4271 33.6217 10.1309 33.166 9.91211C32.7194 9.68424 32.2409 9.57031 31.7305 9.57031C31.2201 9.57031 30.737 9.6569 30.2812 9.83008C29.8346 10.0033 29.4427 10.2585 29.1055 10.5957C28.7773 10.9329 28.5176 11.3522 28.3262 11.8535C28.1348 12.3457 28.0391 12.9108 28.0391 13.5488C28.0391 14.1868 28.1348 14.7565 28.3262 15.2578C28.5176 15.75 28.7773 16.1647 29.1055 16.502C29.4427 16.8392 29.8346 17.0944 30.2812 17.2676C30.737 17.4408 31.2201 17.5273 31.7305 17.5273C32.2409 17.5273 32.7194 17.418 33.166 17.1992C33.6217 16.9714 34.0182 16.6751 34.3555 16.3105C34.6927 15.9368 34.957 15.513 35.1484 15.0391C35.349 14.556 35.4492 14.0592 35.4492 13.5488ZM45.7988 21H42.0664V6.35742H42.9688L44.1992 7.7793C44.8008 7.23242 45.4798 6.81315 46.2363 6.52148C47.002 6.2207 47.7995 6.07031 48.6289 6.07031C49.5221 6.07031 50.3652 6.24349 51.1582 6.58984C51.9512 6.92708 52.6439 7.39648 53.2363 7.99805C53.8288 8.59049 54.2936 9.28776 54.6309 10.0898C54.9772 10.8828 55.1504 11.7305 55.1504 12.6328V21H51.418V12.6328C51.418 12.25 51.3451 11.89 51.1992 11.5527C51.0534 11.2064 50.8529 10.9056 50.5977 10.6504C50.3424 10.3952 50.0462 10.1947 49.709 10.0488C49.3717 9.90299 49.0117 9.83008 48.6289 9.83008C48.237 9.83008 47.8678 9.90299 47.5215 10.0488C47.1751 10.1947 46.8743 10.3952 46.6191 10.6504C46.3639 10.9056 46.1634 11.2064 46.0176 11.5527C45.8717 11.89 45.7988 12.25 45.7988 12.6328V21ZM73.9219 11.1973C73.9219 12.0996 73.8034 12.9701 73.5664 13.8086C73.3385 14.638 73.0104 15.4173 72.582 16.1465C72.1536 16.8665 71.6432 17.5273 71.0508 18.1289C70.4583 18.7214 69.7975 19.2318 69.0684 19.6602C68.3392 20.0885 67.5553 20.4212 66.7168 20.6582C65.8874 20.8861 65.0215 21 64.1191 21H58.2129V1.39453H64.1191C65.0215 1.39453 65.8874 1.51302 66.7168 1.75C67.5553 1.97786 68.3392 2.30599 69.0684 2.73438C69.7975 3.16276 70.4583 3.67773 71.0508 4.2793C71.6432 4.87174 72.1536 5.53255 72.582 6.26172C73.0104 6.98177 73.3385 7.76107 73.5664 8.59961C73.8034 9.42904 73.9219 10.2949 73.9219 11.1973ZM69.998 11.1973C69.998 10.3861 69.8431 9.625 69.5332 8.91406C69.2324 8.20312 68.8132 7.58333 68.2754 7.05469C67.7467 6.51693 67.1224 6.0931 66.4023 5.7832C65.6914 5.47331 64.9303 5.31836 64.1191 5.31836H62.1641V17.0762H64.1191C64.9303 17.0762 65.6914 16.9258 66.4023 16.625C67.1224 16.3151 67.7467 15.8958 68.2754 15.3672C68.8132 14.8294 69.2324 14.2051 69.5332 13.4941C69.8431 12.7741 69.998 12.0085 69.998 11.1973ZM90.2871 13.5488C90.2871 14.6426 90.0911 15.6634 89.6992 16.6113C89.3073 17.5501 88.7741 18.3659 88.0996 19.0586C87.4251 19.7422 86.6322 20.2845 85.7207 20.6855C84.8184 21.0775 83.8477 21.2734 82.8086 21.2734C81.7786 21.2734 80.8079 21.0775 79.8965 20.6855C78.9941 20.2845 78.2012 19.7422 77.5176 19.0586C76.8431 18.3659 76.3099 17.5501 75.918 16.6113C75.526 15.6634 75.3301 14.6426 75.3301 13.5488C75.3301 12.4368 75.526 11.4069 75.918 10.459C76.3099 9.51107 76.8431 8.69531 77.5176 8.01172C78.2012 7.31901 78.9941 6.77669 79.8965 6.38477C80.8079 5.99284 81.7786 5.79688 82.8086 5.79688C83.8477 5.79688 84.8184 5.98372 85.7207 6.35742C86.6322 6.72201 87.4251 7.24609 88.0996 7.92969C88.7741 8.60417 89.3073 9.41992 89.6992 10.377C90.0911 11.3249 90.2871 12.3822 90.2871 13.5488ZM86.5273 13.5488C86.5273 12.9473 86.4271 12.4049 86.2266 11.9219C86.0352 11.4297 85.7708 11.0104 85.4336 10.6641C85.0964 10.3086 84.6999 10.0397 84.2441 9.85742C83.7975 9.66602 83.319 9.57031 82.8086 9.57031C82.2982 9.57031 81.8151 9.66602 81.3594 9.85742C80.9128 10.0397 80.5208 10.3086 80.1836 10.6641C79.8555 11.0104 79.5957 11.4297 79.4043 11.9219C79.2129 12.4049 79.1172 12.9473 79.1172 13.5488C79.1172 14.1139 79.2129 14.638 79.4043 15.1211C79.5957 15.6042 79.8555 16.0234 80.1836 16.3789C80.5208 16.7344 80.9128 17.0169 81.3594 17.2266C81.8151 17.4271 82.2982 17.5273 82.8086 17.5273C83.319 17.5273 83.7975 17.4316 84.2441 17.2402C84.6999 17.0488 85.0964 16.7799 85.4336 16.4336C85.7708 16.0872 86.0352 15.668 86.2266 15.1758C86.4271 14.6836 86.5273 14.1413 86.5273 13.5488ZM96.084 21H92.3516V6.35742H93.2539L94.4844 7.7793C95.0859 7.23242 95.765 6.81315 96.5215 6.52148C97.2871 6.2207 98.0846 6.07031 98.9141 6.07031C99.8073 6.07031 100.65 6.24349 101.443 6.58984C102.236 6.92708 102.929 7.39648 103.521 7.99805C104.114 8.59049 104.579 9.28776 104.916 10.0898C105.262 10.8828 105.436 11.7305 105.436 12.6328V21H101.703V12.6328C101.703 12.25 101.63 11.89 101.484 11.5527C101.339 11.2064 101.138 10.9056 100.883 10.6504C100.628 10.3952 100.331 10.1947 99.9941 10.0488C99.6569 9.90299 99.2969 9.83008 98.9141 9.83008C98.5221 9.83008 98.153 9.90299 97.8066 10.0488C97.4603 10.1947 97.1595 10.3952 96.9043 10.6504C96.6491 10.9056 96.4486 11.2064 96.3027 11.5527C96.1569 11.89 96.084 12.25 96.084 12.6328V21ZM113.926 17.418C114.072 17.4635 114.217 17.4954 114.363 17.5137C114.509 17.5228 114.655 17.5273 114.801 17.5273C115.165 17.5273 115.516 17.4772 115.854 17.377C116.191 17.2767 116.505 17.1354 116.797 16.9531C117.098 16.7617 117.362 16.5339 117.59 16.2695C117.827 15.9961 118.018 15.6953 118.164 15.3672L120.898 18.1152C120.552 18.6074 120.151 19.0495 119.695 19.4414C119.249 19.8333 118.761 20.166 118.232 20.4395C117.713 20.7129 117.161 20.918 116.578 21.0547C116.004 21.2005 115.411 21.2734 114.801 21.2734C113.771 21.2734 112.8 21.082 111.889 20.6992C110.986 20.3164 110.193 19.7832 109.51 19.0996C108.835 18.416 108.302 17.6048 107.91 16.666C107.518 15.7181 107.322 14.679 107.322 13.5488C107.322 12.3913 107.518 11.334 107.91 10.377C108.302 9.41992 108.835 8.60417 109.51 7.92969C110.193 7.25521 110.986 6.73112 111.889 6.35742C112.8 5.98372 113.771 5.79688 114.801 5.79688C115.411 5.79688 116.008 5.86979 116.592 6.01562C117.175 6.16146 117.727 6.37109 118.246 6.64453C118.775 6.91797 119.267 7.25521 119.723 7.65625C120.178 8.04818 120.579 8.49023 120.926 8.98242L113.926 17.418ZM115.84 9.7207C115.667 9.6569 115.493 9.61589 115.32 9.59766C115.156 9.57943 114.983 9.57031 114.801 9.57031C114.29 9.57031 113.807 9.66602 113.352 9.85742C112.905 10.0397 112.513 10.304 112.176 10.6504C111.848 10.9967 111.588 11.416 111.396 11.9082C111.205 12.3913 111.109 12.9382 111.109 13.5488C111.109 13.6855 111.114 13.8405 111.123 14.0137C111.141 14.1868 111.164 14.3646 111.191 14.5469C111.228 14.7201 111.269 14.8887 111.314 15.0527C111.36 15.2168 111.419 15.3626 111.492 15.4902L115.84 9.7207Z" fill="white"/>
</svg>
