<svg width="373" height="361" viewBox="0 0 373 361" fill="none" xmlns="http://www.w3.org/2000/svg">
<path d="M105.852 38.9934V46.9026H111.58V43.9662H120.09V52.4458H111.58V49.5108H105.852V61.9032H111.58V58.9682H120.09V67.4477H111.58V64.5113H105.852V76.9051H111.58V73.9701H120.09V82.4483H111.58V79.5133H105.852V91.9043H111.58V88.9707H120.09V97.4502H111.58V94.5152H105.852V106.906H111.58V103.973H120.09V112.451H111.58V109.516H105.852V121.907H111.58V118.972H120.09V127.453H111.58V124.518H105.852V136.909H111.58V133.974H120.09V142.452H111.58V139.518H105.852V151.911H111.58V148.974H120.09V157.454H111.58V154.52H105.852V166.911H111.58V163.976H120.09V172.456H111.58V169.519H105.852V181.913H111.58V178.978H120.09V187.456H111.58V184.521H105.852V196.914H111.58V193.979H120.09V202.458H111.58V199.523H105.852V204.008H240.057V38.9934H105.852Z" fill="#0D236A"/>
<path d="M105.852 114.196V122.104H111.58V119.169H120.09V127.647H111.58V124.712H105.852V137.104H111.58V134.169H120.09V142.649H111.58V139.714H105.852V152.106H111.58V149.171H120.09V157.65H111.58V154.715H105.852V167.108H111.58V164.172H120.09V172.651H111.58V169.716H105.852V182.109H111.58V179.174H120.09V187.653H111.58V184.717H105.852V197.111H111.58V194.176H120.09V202.654H111.58V199.719H105.852V212.111H111.58V209.176H120.09V217.656H111.58V214.721H105.852V227.113H111.58V224.178H120.09V232.657H111.58V229.721H105.852V242.114H111.58V239.179H120.09V247.658H111.58V244.723H105.852V257.114H111.58V254.181H120.09V262.659H111.58V259.724H105.852V272.116H111.58V269.183H120.09V277.661H111.58V274.726H105.852V279.209H240.057V114.196H105.852Z" fill="#0D236A"/>
<path d="M368.247 23.4131H126.766V338.931H368.247V23.4131Z" fill="#D6D7D8"/>
<path d="M132.591 27.4353L367.874 23.5675L373 333.06L137.716 336.929L132.591 27.4353Z" fill="#EEEEEE"/>
<path d="M141.154 31.053L365.541 32.3947L363.676 341.917L139.289 340.575L141.154 31.053Z" fill="white"/>
<path d="M278.53 6.11621H216.281V8.95002H278.53V6.11621Z" fill="#151A4F"/>
<path d="M278.53 8.85278H216.281V35.7247H278.53V8.85278Z" fill="url(#paint0_linear)"/>
<path d="M242.486 33.9742H212.533V31.1322H241.06V26.6134L225.938 2.16502L227.151 0H249.142V2.84201H229.706L243.701 25.4646L243.912 26.2113V32.5532L242.486 33.9742Z" fill="#FF4945"/>
<path d="M281.634 33.9742H251.746L250.32 32.5532V26.2113L250.532 25.466L264.527 2.84201H245.091V0H267.081L268.296 2.16502L253.172 26.6134V31.1322H281.634V33.9742Z" fill="#FF4945"/>
<path d="M235.175 29.9587H214.419V35.7235H235.175V29.9587Z" fill="url(#paint1_linear)"/>
<path d="M280.39 29.9587H259.057V35.7235H280.39V29.9587Z" fill="url(#paint2_linear)"/>
<path d="M166.442 100.165H157.887V105.848H166.442V100.165Z" fill="#EEEEEE"/>
<path d="M269.727 105.848H252.513V100.165H269.727V105.848ZM235.3 105.848H218.084V100.165H235.298L235.3 105.848ZM200.872 105.848H183.656V100.165H200.87L200.872 105.848Z" fill="#EEEEEE"/>
<path d="M295.497 100.165H286.941V105.848H295.497V100.165Z" fill="#EEEEEE"/>
<path d="M166.442 147.049H157.887V152.732H166.442V147.049Z" fill="#EEEEEE"/>
<path d="M269.727 152.731H252.513V147.049H269.727V152.731ZM235.3 152.731H218.084V147.049H235.298L235.3 152.731ZM200.872 152.731H183.656V147.049H200.87L200.872 152.731Z" fill="#EEEEEE"/>
<path d="M295.497 147.049H286.941V152.731H295.497V147.049Z" fill="#EEEEEE"/>
<path d="M166.442 193.932H157.887V199.615H166.442V193.932Z" fill="#EEEEEE"/>
<path d="M269.727 199.615H252.513V193.932H269.727V199.615ZM235.3 199.615H218.084V193.932H235.298L235.3 199.615ZM200.872 199.615H183.656V193.932H200.87L200.872 199.615Z" fill="#EEEEEE"/>
<path d="M295.497 193.932H286.941V199.615H295.497V193.932Z" fill="#EEEEEE"/>
<path d="M166.442 240.816H157.887V246.499H166.442V240.816Z" fill="#EEEEEE"/>
<path d="M269.727 246.499H252.513V240.816H269.727V246.499ZM235.3 246.499H218.084V240.816H235.298L235.3 246.499ZM200.872 246.499H183.656V240.816H200.87L200.872 246.499Z" fill="#EEEEEE"/>
<path d="M295.497 240.816H286.941V246.499H295.497V240.816Z" fill="#EEEEEE"/>
<path d="M343.982 107.979H307.619V71.7506H343.982V107.979ZM313.323 102.296H338.279V77.4333H313.323V102.296Z" fill="#EEEEEE"/>
<path d="M343.982 203.167H307.619V166.939H343.982V203.167ZM313.323 197.484H338.279V172.622H313.323V197.484Z" fill="#EEEEEE"/>
<path d="M343.982 298.355H307.619V262.127H343.982V298.355ZM313.323 292.672H338.279V267.809H313.323V292.672Z" fill="#EEEEEE"/>
<path d="M118.291 110.526C115.591 109.9 112.821 109.269 110.074 109.623C105.964 110.152 102.459 112.796 99.3584 115.551C95.5538 118.933 92.0052 122.656 89.2262 126.924C82.6208 137.073 80.7811 149.678 81.1936 161.789C81.606 173.899 84.0877 185.835 85.406 197.882C86.7733 210.363 86.8916 222.981 85.7562 235.485C113.524 231.49 141.988 232.392 169.448 238.138C151.317 211.73 140.642 178.7 147.029 147.287C148.923 137.967 151.856 126.974 145.447 119.961C141.936 116.119 136.548 114.762 131.486 113.587C127.087 112.567 122.689 111.547 118.291 110.526Z" fill="#151A4F"/>
<path d="M116.756 160.444C117.02 160.479 117.293 160.518 117.522 160.675C118.241 161.164 118.153 162.411 117.982 163.376C114.911 180.689 116.15 199.054 121.503 215.56C111.473 208.081 98.1871 215.53 86.6214 212.561C89.9366 204.925 89.1786 195.829 89.1405 187.232C89.0954 177.111 86.9709 163.501 89.1312 153.712C97.272 154.796 108.615 159.361 116.756 160.444Z" fill="#F2A19C"/>
<path d="M136.292 130.059C137.141 138.907 135.074 146.583 131.699 154.805C127.778 164.36 120.63 173.095 110.881 176.448C101.131 179.801 91.0614 178.532 86.291 169.373C84.323 165.593 83.3782 159.399 83.4498 155.138C83.6459 143.444 86.4039 131.221 94.9244 123.232C99.9804 118.491 105.243 111.781 112.14 111.189C119.037 110.597 128.751 113.683 132.7 119.383C135.934 124.048 135.749 124.404 136.292 130.059Z" fill="#FFBEB6"/>
<path d="M95.8706 159.429C97.2503 160.973 99.2503 161.805 101.238 162.374C104.317 163.255 107.602 163.618 110.731 162.937C113.86 162.256 116.821 160.445 118.471 157.694C116.582 157.99 114.65 158.025 112.751 157.797C103.598 156.698 96.2643 149.777 90.5064 142.561C90.8356 146.323 91.269 148.763 92.1982 152.405C92.7375 154.518 94.4192 157.803 95.8706 159.429Z" fill="white"/>
<path d="M145.21 145.052C135.783 129.75 119.56 118.833 101.861 115.884C98.873 118.575 95.8855 121.267 92.898 123.957C112.872 126.707 129.442 140.994 141.818 156.949C144.3 153.44 146.873 148.904 144.835 145.117C145.705 151.125 143.052 139.382 145.21 145.052Z" fill="#E94A47"/>
<path d="M140.509 247.447C132.758 214.942 133.977 208.631 134.156 175.211C134.197 167.775 130.961 137.841 125.634 128.766C118.164 116.04 111.443 113.928 104.441 111.472C120.952 97.592 141.39 112.739 146.226 121.301C151.062 129.864 151.738 140.075 152.462 149.889C154.853 182.339 158.956 214.664 164.747 246.681C156.662 246.438 148.563 246.696 140.509 247.447Z" fill="#23286B"/>
<path d="M129.115 166.139C129.116 166.139 129.117 166.139 129.118 166.139C129.412 166.137 129.649 165.895 129.648 165.601C129.573 154.145 127.194 143.362 121.936 130.641C118.619 122.619 111.346 114.011 107.06 111.673C106.801 111.534 106.478 111.629 106.338 111.887C106.197 112.146 106.292 112.471 106.552 112.613C110.598 114.818 117.77 123.353 120.953 131.051C126.157 143.638 128.51 154.297 128.585 165.609C128.584 165.902 128.821 166.139 129.115 166.139Z" fill="#23286B"/>
<path d="M125.307 161.375C125.33 161.375 125.354 161.374 125.378 161.37C125.671 161.331 125.875 161.062 125.836 160.77C123.494 143.267 115.772 124.462 105.684 111.688C105.501 111.459 105.166 111.417 104.936 111.601C104.705 111.784 104.666 112.119 104.849 112.351C114.826 124.981 122.463 143.589 124.78 160.91C124.814 161.179 125.044 161.375 125.307 161.375Z" fill="#23286B"/>
<path d="M170.982 245.322C170.992 245.322 171.005 245.322 171.015 245.321C171.309 245.302 171.532 245.049 171.514 244.755C169.423 211.03 164.854 181.799 156.234 147.012L156.03 146.184C153.965 137.832 150.846 125.21 144.838 119.6C144.623 119.4 144.284 119.411 144.086 119.627C143.886 119.843 143.897 120.181 144.112 120.382C149.888 125.775 152.963 138.211 154.995 146.44L155.2 147.268C163.804 181.989 168.366 211.164 170.451 244.821C170.468 245.105 170.702 245.322 170.982 245.322Z" fill="#23286B"/>
<path d="M81.7912 194.699C82.1041 200.665 82.4177 206.63 82.7313 212.596C82.7445 212.851 82.7834 213.148 83.006 213.271C83.1453 213.348 83.3157 213.329 83.4753 213.307C89.6799 212.478 93.2799 241.488 99.5382 241.406C106.165 241.318 115.453 212.181 122.038 212.929C122.021 209.328 122.007 205.727 121.99 202.125C121.985 200.845 122.128 197.49 122.128 197.49C122.128 197.49 120.475 195.901 119.307 195.363C115.299 193.515 111.245 200.021 107.039 198.684C104.787 197.969 103.564 195.2 101.245 194.752C97.9864 194.121 95.8721 198.32 92.7024 199.306C90.7499 199.913 88.6153 199.2 86.8675 198.14C85.1196 197.08 83.5889 195.676 81.7912 194.699Z" fill="white"/>
<path d="M98.6487 235.576C93.2472 226.538 87.8457 217.5 82.4434 208.462C70.74 211.094 59.3953 215.322 48.8195 220.994C43.2763 223.966 37.8709 227.393 33.639 232.053C27.4406 238.876 24.1799 247.856 21.8523 256.784C15.0516 282.875 16.4469 324.887 23.3068 350.962C31.8577 349.555 39.3705 348.059 47.9705 349.131C57.6412 350.338 69.3088 352.582 79.0294 351.878C113.725 349.366 134.938 348.396 168.552 357.371C170.003 338.089 182.279 306.139 181.303 286.826C180.345 267.898 177.866 248.062 166.79 232.702C157.281 219.516 121.907 209.374 121.907 209.374C121.907 209.374 104.451 228.417 98.6487 235.576Z" fill="url(#paint3_linear)"/>
<path d="M221.04 196.064C223.677 185.54 227.964 185.121 235.687 177.38C236.934 176.129 238.284 174.165 239.681 175.245C241.045 179.097 231.426 185.654 230.587 194.657C243.171 187.362 261.904 183.83 273.235 184.587C277.23 184.854 270.305 188.057 261.252 189.393C252.986 190.611 247.936 193.93 240.519 197.768C240.081 199.038 245.035 196.913 246.338 196.6C258.697 193.628 267.376 191.262 280.537 190.264C284.419 190.727 277.726 197.347 274.167 198.735C265.318 202.184 255.395 204.767 246.547 208.216C248.868 212.481 272.169 198.068 267.583 203.778C259.431 212.965 247.024 218.191 234.773 217.598C232.754 217.502 230.657 217.265 228.766 217.979C226.544 218.818 224.467 220.996 223.834 223.291C214.751 256.274 204.778 287.484 197.071 308.439C194.806 305.281 186.713 275.967 183.113 274.516C190.072 255.623 202.868 245.741 209.588 226.761C212.518 218.486 216.22 212.363 218.642 206.208C219.163 204.891 221.528 194.735 221.04 196.064Z" fill="url(#paint4_linear)"/>
<path d="M208.418 223.004C193.004 246.78 191.038 256.567 176.479 282.903C168.939 296.544 157.852 314.874 155.175 330.236C154.483 334.208 156.605 356.249 159.79 358.709C162.311 360.656 169.1 357.529 171.699 355.689C174.298 353.849 175.986 351.014 177.582 348.255C198.973 311.286 217.772 272.808 233.793 233.202C224.629 232.168 215.758 228.604 208.418 223.004Z" fill="url(#paint5_linear)"/>
<path d="M8.17514 351.367H188.23V360.119H8.17514V351.367Z" fill="#EEEEEE"/>
<path d="M101.861 133.806C102.147 133.806 102.383 133.578 102.393 133.291C102.403 132.997 102.172 132.749 101.878 132.737C94.8185 132.492 88.3236 126.328 87.7002 119.275C87.6746 118.982 87.4037 118.775 87.122 118.79C86.8286 118.816 86.6115 119.077 86.6388 119.369C87.3197 127.064 94.1391 133.54 101.84 133.806C101.848 133.806 101.855 133.806 101.861 133.806Z" fill="#23286B"/>
<path d="M8.17523 249.33H160.728V360.119H8.17523V249.33Z" fill="url(#paint6_linear)"/>
<path d="M72.2761 297.4H95.1133V320.29H72.2761V297.4Z" fill="white"/>
<path d="M34.8048 326.679C32.0289 331.548 11.6571 319.727 7.81976 315.647C7.93493 321.097 15.987 324.901 16.7084 326.981C17.3419 328.806 12.9372 327.425 11.3178 326.377C3.35752 321.226 -0.195774 310.269 0.00811386 300.699C0.0758171 297.509 1.13963 295.873 2.13806 292.87C5.33337 283.261 5.68825 261.906 7.90302 266.658C10.2804 272.969 12.4213 283.681 9.23997 289.311C20.7613 297.523 27.9309 306.256 35.583 318.17C36.6966 319.907 37.5768 322.612 35.8211 323.689C30.3426 318.507 24.864 313.324 19.3854 308.14C15.931 304.872 12.6135 300.596 8.88589 303.547C13.822 309.304 36.2242 324.187 34.8048 326.679Z" fill="url(#paint7_linear)"/>
<path d="M146.992 292.692C146.911 292.99 146.669 293.18 146.374 293.1C146.076 293.02 145.887 292.778 145.966 292.48C146.046 292.182 146.288 291.993 146.584 292.072C146.883 292.152 147.072 292.394 146.992 292.692ZM127.188 340.337C127.378 340.579 127.298 340.877 127.056 341.068C126.814 341.258 126.516 341.178 126.327 340.935C126.137 340.693 126.217 340.395 126.459 340.204C126.674 339.879 126.998 340.094 127.188 340.337ZM120.408 329.059C120.598 329.301 120.518 329.599 120.276 329.789C120.034 329.98 119.737 329.899 119.547 329.657C119.358 329.414 119.438 329.116 119.68 328.926C119.787 328.764 120.218 328.815 120.408 329.059ZM143.431 317.331C143.189 317.521 142.919 317.576 142.623 317.496C142.433 317.253 142.378 316.983 142.459 316.685C142.701 316.495 142.97 316.44 143.133 316.547C143.59 316.737 143.646 317.007 143.431 317.331ZM132.725 309.527C132.483 309.717 132.214 309.772 131.917 309.691C131.727 309.449 131.673 309.179 131.753 308.881C131.995 308.691 132.264 308.636 132.427 308.743C132.885 308.932 132.967 309.337 132.725 309.527ZM100.901 343.585C100.955 343.856 100.741 344.181 100.471 344.236C100.201 344.291 99.8768 344.075 99.8231 343.806C99.7686 343.536 99.9834 343.21 100.253 343.156C100.523 343.1 100.846 343.315 100.901 343.585ZM98.8091 330.508C98.8636 330.778 98.6488 331.104 98.3795 331.158C98.1095 331.213 97.785 330.998 97.7313 330.729C97.6768 330.458 97.8916 330.133 98.1608 330.078C98.4293 330.022 98.7546 330.238 98.8091 330.508ZM150.678 306.71C150.571 306.873 150.192 307.09 150.004 306.848C149.842 306.741 149.624 306.363 149.866 306.172C149.974 306.01 150.352 305.792 150.54 306.034C150.838 306.115 150.894 306.385 150.678 306.71ZM140.599 300.607C140.491 300.769 140.113 300.987 139.925 300.745C139.763 300.638 139.573 300.395 139.787 300.069C139.894 299.907 140.137 299.717 140.461 299.931C140.652 300.175 140.707 300.445 140.599 300.607ZM111.288 335.982C111.343 336.252 111.263 336.549 110.993 336.604C110.723 336.659 110.561 336.552 110.372 336.308C110.318 336.038 110.398 335.741 110.668 335.686C110.937 335.631 111.234 335.712 111.288 335.982ZM108.419 324.61C108.474 324.88 108.393 325.178 108.123 325.232C107.853 325.287 107.692 325.18 107.503 324.937C107.449 324.666 107.529 324.369 107.799 324.314C108.067 324.26 108.364 324.34 108.419 324.61ZM131.14 319.697C131.33 319.939 131.25 320.237 131.008 320.428C130.766 320.618 130.469 320.538 130.28 320.295C130.09 320.052 130.17 319.755 130.412 319.564C130.652 319.374 130.951 319.454 131.14 319.697ZM156.675 317.585C156.865 317.828 156.785 318.126 156.543 318.316C156.301 318.507 156.003 318.426 155.814 318.184C155.624 317.941 155.704 317.643 155.946 317.453C156.188 317.263 156.485 317.344 156.675 317.585ZM148.575 306.717C148.764 306.96 148.684 307.258 148.442 307.448C148.2 307.639 147.903 307.558 147.714 307.316C147.524 307.073 147.604 306.775 147.846 306.585C148.087 306.395 148.385 306.475 148.575 306.717ZM140.582 295.688C140.772 295.931 140.692 296.229 140.45 296.419C140.208 296.609 139.911 296.529 139.722 296.286C139.532 296.044 139.612 295.746 139.854 295.555C140.122 295.499 140.42 295.58 140.582 295.688ZM101.457 331.797C101.376 332.095 101.134 332.285 100.839 332.205C100.541 332.125 100.351 331.883 100.431 331.585C100.511 331.287 100.753 331.097 101.049 331.177C101.319 331.121 101.537 331.498 101.457 331.797ZM147.835 278.173C148.161 278.389 148.215 278.659 147.999 278.984L147.835 278.173ZM129.859 323.756C129.914 324.026 129.699 324.352 129.431 324.406C129.161 324.461 128.836 324.246 128.782 323.976C128.729 323.707 128.943 323.381 129.211 323.326C129.48 323.271 129.803 323.485 129.859 323.756ZM139.137 323.834C139.192 324.104 138.977 324.43 138.708 324.484C138.438 324.539 138.114 324.324 138.06 324.054C138.006 323.784 138.086 323.487 138.489 323.404C138.757 323.349 139.081 323.564 139.137 323.834ZM135.372 310.816C135.427 311.087 135.212 311.412 134.943 311.467C134.673 311.521 134.377 311.441 134.295 311.037C134.241 310.766 134.456 310.441 134.698 310.251C134.993 310.33 135.318 310.546 135.372 310.816ZM152.093 293.623C152.283 293.865 152.203 294.163 151.96 294.354C151.718 294.544 151.421 294.463 151.097 294.247C150.907 294.005 150.987 293.707 151.203 293.381C151.606 293.299 151.903 293.379 152.093 293.623ZM146.776 292.315C146.831 292.585 146.724 292.747 146.616 292.911C146.346 292.965 146.184 292.858 146.021 292.75C145.967 292.479 146.073 292.318 146.182 292.154C146.451 292.1 146.748 292.18 146.776 292.315Z" fill="white"/>
<path d="M224.377 209.559C222.636 209.098 221.16 208.007 220.989 207.371C220.588 205.88 220.184 204.375 220.128 202.832C220.074 201.339 220.348 199.854 220.638 198.387C221.724 192.904 223.315 187.67 227.658 184.166C230.365 181.983 233.123 179.877 235.512 177.348C236.462 176.342 238.071 173.825 239.263 174.527C241.345 175.75 238.366 179.487 237.153 181.58C235.224 184.907 233.573 186.599 231.644 189.926C231.203 190.687 230.914 192.929 230.824 193.806C230.745 194.566 231.232 196.029 231.393 196.777C231.817 198.751 231.973 200.783 231.855 202.799C231.776 204.152 231.553 205.552 230.778 206.662C229.248 208.851 226.955 210.24 224.377 209.559Z" fill="url(#paint8_linear)"/>
<path d="M302.993 165.808L319.019 191.821H332.272L355.078 155.977H339.668L324.464 180.658L315.115 165.808H302.993Z" fill="url(#paint9_linear)"/>
<path d="M304.393 71.8174L319.729 96.6103H332.412L354.238 62.4467H339.491L324.94 85.9708L315.994 71.8174H304.393Z" fill="url(#paint10_linear)"/>
<path d="M302.993 262.392L318.588 287.591H331.484L353.678 252.867H338.682L323.887 276.777L314.789 262.392H302.993Z" fill="url(#paint11_linear)"/>
<defs>
<linearGradient id="paint0_linear" x1="247.49" y1="9.28551" x2="247.302" y2="38.4261" gradientUnits="userSpaceOnUse">
<stop stop-color="#23286B"/>
<stop offset="1" stop-color="#151A4F"/>
</linearGradient>
<linearGradient id="paint1_linear" x1="224.753" y1="30.4146" x2="224.892" y2="38.0731" gradientUnits="userSpaceOnUse">
<stop stop-color="#23286B"/>
<stop offset="1" stop-color="#151A4F"/>
</linearGradient>
<linearGradient id="paint2_linear" x1="269.847" y1="29.6342" x2="269.516" y2="38.2432" gradientUnits="userSpaceOnUse">
<stop stop-color="#23286B"/>
<stop offset="1" stop-color="#151A4F"/>
</linearGradient>
<linearGradient id="paint3_linear" x1="181.358" y1="282.916" x2="17.4014" y2="282.916" gradientUnits="userSpaceOnUse">
<stop stop-color="#428DFC"/>
<stop offset="1" stop-color="#1D72D8"/>
</linearGradient>
<linearGradient id="paint4_linear" x1="247.798" y1="221.627" x2="285.255" y2="196.761" gradientUnits="userSpaceOnUse">
<stop stop-color="#FFBEB6"/>
<stop offset="1" stop-color="#F2A19C"/>
</linearGradient>
<linearGradient id="paint5_linear" x1="233.793" y1="291.164" x2="155.043" y2="291.164" gradientUnits="userSpaceOnUse">
<stop stop-color="#428DFC"/>
<stop offset="1" stop-color="#1D72D8"/>
</linearGradient>
<linearGradient id="paint6_linear" x1="160.727" y1="304.724" x2="8.17505" y2="304.724" gradientUnits="userSpaceOnUse">
<stop stop-color="#D6D7D8"/>
<stop offset="1" stop-color="#EEEEEE"/>
</linearGradient>
<linearGradient id="paint7_linear" x1="36.8166" y1="296.924" x2="-0.000452335" y2="296.924" gradientUnits="userSpaceOnUse">
<stop stop-color="#FFBEB6"/>
<stop offset="1" stop-color="#F2A19C"/>
</linearGradient>
<linearGradient id="paint8_linear" x1="233.206" y1="192.615" x2="220.961" y2="187.78" gradientUnits="userSpaceOnUse">
<stop stop-color="#FFBEB6"/>
<stop offset="1" stop-color="#F2A19C"/>
</linearGradient>
<linearGradient id="paint9_linear" x1="329.035" y1="163.074" x2="329.035" y2="201.824" gradientUnits="userSpaceOnUse">
<stop offset="0.1291" stop-color="#428DFC"/>
<stop offset="0.9987" stop-color="#1D72D8"/>
</linearGradient>
<linearGradient id="paint10_linear" x1="329.315" y1="69.2111" x2="329.315" y2="106.145" gradientUnits="userSpaceOnUse">
<stop offset="0.1291" stop-color="#428DFC"/>
<stop offset="0.9987" stop-color="#1D72D8"/>
</linearGradient>
<linearGradient id="paint11_linear" x1="328.335" y1="259.742" x2="328.335" y2="297.282" gradientUnits="userSpaceOnUse">
<stop offset="0.1291" stop-color="#428DFC"/>
<stop offset="0.9987" stop-color="#1D72D8"/>
</linearGradient>
</defs>
</svg>
