<svg xmlns="http://www.w3.org/2000/svg"  viewBox="0 0 64 64" width="64px" height="64px"><radialGradient id="vtsjBvzAD~5CQhLI0azpva" cx="32" cy="34" r="33.002" gradientUnits="userSpaceOnUse" spreadMethod="reflect"><stop offset="0" stop-color="#afeeff"/><stop offset=".193" stop-color="#bbf1ff"/><stop offset=".703" stop-color="#d7f8ff"/><stop offset="1" stop-color="#e1faff"/></radialGradient><path fill="url(#vtsjBvzAD~5CQhLI0azpva)" d="M58,43l2.302,0c1.733,0,3.348-1.166,3.644-2.873C64.329,37.918,62.638,36,60.5,36h-4.401 c-0.983,0-1.895-0.666-2.067-1.634c-0.219-1.236,0.698-2.313,1.88-2.364C55.918,32.002,58,32,58,32c1.657,0,3-1.343,3-3v0 c0-1.657-1.343-3-3-3l-1.302,0c-1.733,0-3.348-1.166-3.644-2.873C52.671,20.918,54.362,19,56.5,19l1.802,0 c1.733,0,3.348-1.166,3.644-2.873C62.329,13.918,60.638,12,58.5,12H48h-6l-10,4l-14-4v4L4.698,16c-1.733,0-3.348,1.166-3.644,2.873 C0.671,21.082,2.362,23,4.5,23l1.802,0c1.895,0,3.594,1.419,3.693,3.312C10.101,28.33,8.495,30,6.5,30l-0.857,0 c-1.308,0-2.499,0.941-2.63,2.242C2.863,33.738,4.034,35,5.5,35h0c0.981,0,1.919,0.552,2.29,1.46C8.528,38.271,7.216,40,5.5,40H3.17 c-1.625,0-3.081,1.216-3.166,2.839C-0.086,44.569,1.29,46,3,46h4.893c0.996,0,1.92,0.681,2.08,1.664C10.176,48.917,9.215,50,8,50 H7.17c-1.625,0-3.081,1.216-3.166,2.839C3.914,54.569,5.29,56,7,56h11h8h22v-1h9.852c1.582,0,3.003-1.162,3.137-2.738 c0.151-1.779-1.252-3.27-3.002-3.262c-1.028,0.004-2.033-0.434-2.532-1.332C54.166,45.35,55.808,43,58,43z"/><linearGradient id="vtsjBvzAD~5CQhLI0azpvb" x1="32" x2="32" y1="59.917" y2="10.917" gradientUnits="userSpaceOnUse" spreadMethod="reflect"><stop offset="0" stop-color="#ff8b67"/><stop offset=".847" stop-color="#ffa76a"/><stop offset="1" stop-color="#ffad6b"/><stop offset="1" stop-color="#ffad6b"/></linearGradient><path fill="url(#vtsjBvzAD~5CQhLI0azpvb)" d="M47,10H36c0,2.209-1.791,4-4,4s-4-1.791-4-4H17c-2.75,0-5,2.25-5,5v39c0,2.75,2.25,5,5,5h30 c2.75,0,5-2.25,5-5V15C52,12.25,49.75,10,47,10z"/><linearGradient id="vtsjBvzAD~5CQhLI0azpvc" x1="32" x2="32" y1="13.319" y2="57.899" gradientUnits="userSpaceOnUse" spreadMethod="reflect"><stop offset="0" stop-color="#ffcfa2"/><stop offset="1" stop-color="#ffd17c"/></linearGradient><path fill="url(#vtsjBvzAD~5CQhLI0azpvc)" d="M45,54H19c-1.105,0-2-0.895-2-2V17c0-1.105,0.895-2,2-2h26c1.105,0,2,0.895,2,2v35 C47,53.105,46.105,54,45,54z"/><linearGradient id="vtsjBvzAD~5CQhLI0azpvd" x1="32" x2="32" y1="15" y2="54" gradientUnits="userSpaceOnUse" spreadMethod="reflect"><stop offset="0" stop-color="#fffaf6"/><stop offset="1" stop-color="#fffaf2"/></linearGradient><path fill="url(#vtsjBvzAD~5CQhLI0azpvd)" d="M45,54H19c-1.105,0-2-0.895-2-2V17c0-1.105,0.895-2,2-2h26c1.105,0,2,0.895,2,2v35 C47,53.105,46.105,54,45,54z"/><linearGradient id="vtsjBvzAD~5CQhLI0azpve" x1="32" x2="32" y1="3.306" y2="24.272" gradientUnits="userSpaceOnUse" spreadMethod="reflect"><stop offset="0" stop-color="#adadad"/><stop offset=".412" stop-color="#969696"/><stop offset="1" stop-color="#6f6f6f"/></linearGradient><path fill="url(#vtsjBvzAD~5CQhLI0azpve)" d="M39,10c0-3.866-3.134-7-7-7s-7,3.134-7,7h-4v6c0,1.657,1.343,3,3,3h16c1.657,0,3-1.343,3-3v-6 H39z M32,13c-1.657,0-3-1.343-3-3s1.343-3,3-3s3,1.343,3,3S33.657,13,32,13z"/><linearGradient id="vtsjBvzAD~5CQhLI0azpvf" x1="-500.964" x2="-500.964" y1="237.032" y2="227.018" gradientTransform="rotate(-90 -332.5 -140.5)" gradientUnits="userSpaceOnUse" spreadMethod="reflect"><stop offset="0" stop-color="#ff634d"/><stop offset=".208" stop-color="#fd6464"/><stop offset=".522" stop-color="#fc6582"/><stop offset=".793" stop-color="#fa6694"/><stop offset=".989" stop-color="#fa669a"/><stop offset="1" stop-color="#fa669a"/></linearGradient><path fill="url(#vtsjBvzAD~5CQhLI0azpvf)" d="M43.577,28.134l-3.711-3.709c-0.564-0.566-1.482-0.566-2.046,0l-1.747,1.747l5.758,5.757 l1.746-1.747C44.141,29.615,44.141,28.699,43.577,28.134"/><linearGradient id="vtsjBvzAD~5CQhLI0azpvg" x1="-509.655" x2="-509.655" y1="231.58" y2="216.178" gradientTransform="rotate(-90 -332.5 -140.5)" gradientUnits="userSpaceOnUse" spreadMethod="reflect"><stop offset="0" stop-color="#ff9757"/><stop offset="1" stop-color="#ffb65b"/><stop offset="1" stop-color="#ffb65b"/></linearGradient><polygon fill="url(#vtsjBvzAD~5CQhLI0azpvg)" points="28.694,45.066 22.936,39.309 34.001,28.244 39.759,34.001"/><linearGradient id="vtsjBvzAD~5CQhLI0azpvh" x1="-503.088" x2="-503.088" y1="223.975" y2="231.804" gradientTransform="rotate(-90 -332.5 -140.5)" gradientUnits="userSpaceOnUse" spreadMethod="reflect"><stop offset="0" stop-color="#d8d8d8"/><stop offset=".759" stop-color="#c9c9c9"/><stop offset="1" stop-color="#c3c3c3"/></linearGradient><polygon fill="url(#vtsjBvzAD~5CQhLI0azpvh)" points="39.762,34.002 34.002,28.245 36.071,26.175 41.831,31.931"/><linearGradient id="vtsjBvzAD~5CQhLI0azpvi" x1="-516.152" x2="-516.152" y1="228.262" y2="213.316" gradientTransform="rotate(-90 -332.5 -140.5)" gradientUnits="userSpaceOnUse" spreadMethod="reflect"><stop offset="0" stop-color="#ffce76"/><stop offset=".004" stop-color="#ffce76"/><stop offset=".605" stop-color="#ffcd92"/><stop offset="1" stop-color="#ffcca0"/><stop offset="1" stop-color="#ffcca0"/></linearGradient><polygon fill="url(#vtsjBvzAD~5CQhLI0azpvi)" points="22.938,39.305 21,47 28.695,45.063"/><linearGradient id="vtsjBvzAD~5CQhLI0azpvj" x1="-518.055" x2="-518.055" y1="212.197" y2="216.087" gradientTransform="rotate(-90 -332.5 -140.5)" gradientUnits="userSpaceOnUse" spreadMethod="reflect"><stop offset="0" stop-color="#a4a4a4"/><stop offset=".63" stop-color="#7f7f7f"/><stop offset="1" stop-color="#6f6f6f"/><stop offset="1" stop-color="#6f6f6f"/></linearGradient><polygon fill="url(#vtsjBvzAD~5CQhLI0azpvj)" points="21.979,43.11 21,47 24.889,46.021"/></svg>